<?xml version="1.0" encoding="UTF-8" standalone="no"?>
<!-- Created with Inkscape (http://www.inkscape.org/) -->
<svg
   xmlns:svg="http://www.w3.org/2000/svg"
   xmlns="http://www.w3.org/2000/svg"
   version="1.0"
   width="810.5144"
   height="137.14285">
  <defs />
  <g style="fill:#000000">
  <path
     d="M 142.26708,6.14715 L 157.83488,6.14715 L 157.83488,47.32907 L 142.26708,47.32907 C 134.5149,21.79816 95.93625,17.97799 71.75173,17.97799 C 50.59367,17.97799 34.79005,23.54112 34.79005,34.28414 C 34.79005,46.70171 64.55303,47.04917 88.61798,50.30881 C 119.59649,54.5049 164.79177,53.78624 164.79177,94.28282 C 164.79177,126.24222 122.34407,137.08364 95.75927,137.14226 C 48.17895,137.24716 33.40538,123.54006 22.5191,123.54006 C 19.50266,123.54006 17.94261,126.45915 17.94264,132.29733 L 2.38043,132.29733 L 2.38043,86.08852 L 17.94264,86.08852 C 23.78663,113.94391 66.62028,120.01403 84.66255,120.01403 C 97.45929,120.01403 130.37052,117.50527 130.37052,102.29515 C 130.37052,87.88137 109.25329,88.63384 83.5861,84.96827 C 55.46371,80.95206 0,80.0725 0,42.67179 C 0,13.8159 32.3347,0 68.61706,0 C 110.76054,0 131.59495,13.68568 137.847,13.68568 C 140.79067,13.68568 142.26708,10.97755 142.26708,6.14715 L 142.26708,6.14715 z" />
  <path
     d="M 574.29323,129.54337 L 549.20373,129.54337 L 449.04693,43.85353 L 449.04693,107.5719 C 449.04683,111.84477 451.18333,113.98119 455.45623,113.98118 L 473.76763,113.98118 L 473.76763,129.54337 L 398.87913,129.54337 L 398.87913,113.98118 L 417.19053,113.98118 C 421.46333,113.98119 423.59983,111.84477 423.59983,107.5719 L 423.59983,29.57096 C 423.59983,25.29821 421.46333,23.16179 417.19053,23.16168 L 398.87913,23.16168 L 398.87913,7.59949 L 461.68113,7.59949 L 548.84053,82.1192 L 548.84053,29.57096 C 548.84033,25.29821 546.70393,23.16179 542.43123,23.16168 L 524.11983,23.16168 L 524.11983,7.59949 L 599.00833,7.59949 L 599.00833,23.16168 L 580.70253,23.16168 C 576.42953,23.16179 574.29303,25.29821 574.29323,29.57096 L 574.29323,129.54337 z" />
  <path
     d="M 736.90553,7.59949 L 810.51443,7.59949 L 810.51443,23.16168 L 796.04743,23.16168 C 789.94533,23.16179 784.81943,25.29821 780.66963,29.57096 L 731.41263,82.1192 L 731.41263,107.5719 C 731.41253,111.84477 733.54903,113.98119 737.82193,113.98118 L 756.13343,113.98118 L 756.13343,129.54337 L 667.32553,129.54337 L 667.32553,113.98118 L 685.63693,113.98118 C 689.90973,113.98119 692.04613,111.84477 692.04623,107.5719 L 692.04623,83.76762 L 641.50963,29.57096 C 637.35963,25.29821 632.23373,23.16179 626.13183,23.16168 L 611.66483,23.16168 L 611.66483,7.59949 L 702.11553,7.59949 L 702.11553,23.16168 L 693.14703,23.16168 C 690.94903,23.16179 689.54463,23.92453 688.93373,25.44991 C 688.32273,26.9755 688.56673,28.34918 689.66583,29.57096 L 719.51053,61.42735 L 749.35533,29.57096 C 750.45413,28.34918 750.69903,26.9755 750.09013,25.44991 C 749.48083,23.92453 748.07743,23.16179 745.87963,23.16168 L 736.90553,23.16168 L 736.90553,7.59949 z" />
  <path
     d="M 288.29852,1e-05 C 231.23149,1e-05 193.44138,29.37547 193.44138,68.57144 C 193.44138,107.76741 231.23149,137.14285 288.29852,137.14285 C 345.36555,137.14285 383.15563,107.76742 383.15563,68.57144 C 383.15563,29.37547 345.36555,2e-05 288.29852,1e-05 z M 288.29852,18.28573 C 321.02612,18.28573 342.69852,39.82773 342.69852,68.57144 C 342.69852,97.31515 321.02612,118.85716 288.29852,118.85713 C 255.57092,118.85711 233.89852,97.31515 233.89852,68.57144 C 233.89852,39.82773 255.57092,18.28572 288.29852,18.28573 z" />
  </g>
</svg>
