<?xml version="1.0" encoding="UTF-8"?>
<svg width="238px" height="894px" viewBox="0 0 238 894" version="1.1" xmlns="http://www.w3.org/2000/svg" xmlns:xlink="http://www.w3.org/1999/xlink">
    <title>image</title>
    <g id="Page-1" stroke="none" stroke-width="1" fill="none" fill-rule="evenodd">
        <g id="image" fill-rule="nonzero">
            <g id="Buttons" transform="translate(31.800000, 45.700000)" fill="#FFFFFF" opacity="0">
                <path d="M47.5,528.8 C48.9,528.7 50,528.5 50.6,528 C51.2,527.5 51.6,526.5 51.6,524.7 L51.6,506.3 C51.6,504.5 51.3,503.5 50.6,503 C50,502.4 48.9,502.2 47.5,502.2 C47.1,502.2 46.7,502.2 46.3,502.3 C45.9,502.3 45.5,502.3 45,502.3 L3.5,504 C2.5,504 1.6,504.4 0.9,505.1 C0.3,505.6 0,506.4 0,507.3 L0,523.7 C0,524.6 0.4,525.3 0.9,525.9 C1.6,526.6 2.6,526.9 3.5,527 L44.9,528.7 C45.4,528.7 45.8,528.7 46.2,528.7 C46.7,528.7 47.1,528.8 47.5,528.8" id="left"></path>
                <path d="M70.2,503.2 L70.2,526.6 C70.2,528.1 70.8,529.5 71.8,530.5 C72.8,531.5 74.2,532.1 75.7,532.1 L99.1,532.1 C100.3,532.1 101.4,531.6 102.2,530.8 L102.2,530.8 C103,530 103.5,528.9 103.5,527.7 L103.5,503.2 C103.5,502 103,500.9 102.2,500.1 L102.2,500.1 C101.4,499.3 100.3,498.8 99.1,498.8 L74.6,498.8 C73.4,498.8 72.3,499.3 71.5,500.1 L71.5,500.1 C70.7,500.9 70.2,502 70.2,503.2" id="ok"></path>
                <path d="M77.6,480.2 L96,480.2 C96.9,480.2 97.6,480.1 98.2,479.9 C98.7,479.7 99.1,479.5 99.3,479.3 C99.7,478.9 99.9,478.4 100.1,477.6 C100.3,476.7 100.4,475.5 100.4,473.9 C100.4,473.3 100.3,472.5 100.3,471.7 C100.3,471 100.2,470.1 100.2,469.1 C100.2,467.8 100.1,466.4 100.1,465.1 C100.1,463.9 100,462.7 100,461.5 L99.2,443.9 C99.2,442.9 98.7,442 98.1,441.3 C97.5,440.7 96.6,440.3 95.8,440.3 L78.1,440.3 C77.2,440.3 76.4,440.7 75.8,441.3 C75.2,442 74.7,442.9 74.7,443.9 L73.9,461.5 C73.8,462.9 73.8,464.2 73.8,465.5 C73.8,466.7 73.7,468 73.7,469.2 C73.7,470.2 73.6,471 73.6,471.8 C73.6,472.6 73.5,473.4 73.5,474.1 C73.5,475.7 73.6,476.9 73.8,477.8 C74,478.6 74.2,479.1 74.6,479.5 L74.6,479.5 C74.9,479.8 75.3,480 75.7,480.1 C76,480.1 76.8,480.2 77.6,480.2" id="up"></path>
                <path d="M53.9,307.3 L53.9,248.7 C53.9,248.6 53.9,248.5 53.8,248.4 C53.7,248.3 53.6,248.3 53.5,248.3 L2.7,248.3 C2.6,248.3 2.5,248.3 2.4,248.4 L2.4,248.4 C2.3,248.5 2.3,248.6 2.3,248.7 L2.3,307.3 L53.9,307.3 Z" id="vol_x2B_"></path>
                <path d="M120.1,248.6 L120.1,307.3 L171.7,307.3 L171.7,248.7 C171.7,248.6 171.7,248.5 171.6,248.4 L171.6,248.4 C171.5,248.3 171.4,248.3 171.3,248.3 L120.5,248.3 C120.4,248.3 120.3,248.3 120.2,248.4 C120.1,248.5 120.1,248.5 120.1,248.6" id="channel_x2B_"></path>
                <path d="M171.7,310.1 L120.1,310.1 L120.1,368.7 C120.1,368.8 120.1,368.9 120.2,369 L120.2,369 C120.3,369.1 120.4,369.1 120.5,369.1 L171.3,369.1 C171.4,369.1 171.5,369.1 171.6,369 L171.6,369 C171.7,368.9 171.7,368.8 171.7,368.7 L171.7,310.1 L171.7,310.1 Z" id="channel-"></path>
                <path d="M53.9,368.7 L53.9,310.1 L2.2,310.1 L2.2,368.7 C2.2,368.8 2.2,368.9 2.3,369 L2.3,369 C2.4,369.1 2.5,369.1 2.6,369.1 L53.4,369.1 C53.5,369.1 53.6,369.1 53.7,369 C53.8,368.9 53.9,368.8 53.9,368.7" id="vol-"></path>
                <path d="M22.4,43.2 C28.4,43.2 33.7,40.8 37.7,36.9 C41.6,33 44,27.6 44,21.6 C44,15.6 41.6,10.3 37.7,6.3 C33.8,2.4 28.4,1.42108547e-14 22.4,1.42108547e-14 C16.4,1.42108547e-14 11.1,2.5 7.2,6.4 C3.3,10.3 0.9,15.7 0.9,21.7 C0.9,27.7 3.3,33 7.2,37 C11.1,41 16.5,43.2 22.4,43.2" id="power"></path>
                <path d="M125.9,5.6 L125.9,37.8 C125.9,37.9 125.9,38 126,38.1 L126,38.1 C126.1,38.2 126.2,38.2 126.3,38.2 L169.6,38.2 C169.7,38.2 169.8,38.2 169.9,38.1 C170,38 170,37.9 170,37.8 L170,5.6 C170,5.5 170,5.4 169.9,5.3 L169.9,5.3 C169.8,5.2 169.7,5.2 169.6,5.2 L126.3,5.2 C126.2,5.2 126.1,5.2 126,5.3 L126,5.3 C126,5.3 125.9,5.4 125.9,5.6" id="source"></path>
                <path d="M126.2,502.2 C124.8,502.3 123.7,502.5 123.1,503 C122.5,503.5 122.1,504.5 122.1,506.3 L122.1,524.7 C122.1,526.5 122.4,527.5 123.1,528 C123.7,528.6 124.8,528.8 126.2,528.8 C126.6,528.8 127,528.8 127.4,528.7 C127.8,528.7 128.2,528.7 128.7,528.7 L170.2,527 C171.2,527 172.1,526.6 172.8,525.9 C173.4,525.4 173.7,524.6 173.7,523.7 L173.7,507.3 C173.7,506.4 173.3,505.7 172.8,505.1 C172.1,504.4 171.1,504.1 170.2,504 L128.8,502.3 C128.3,502.3 127.9,502.3 127.5,502.3 C126.9,502.2 126.5,502.2 126.2,502.2" id="right"></path>
                <path d="M96,550.7 L77.6,550.7 C76.7,550.7 76,550.8 75.4,551 C74.9,551.2 74.5,551.4 74.3,551.6 C73.9,552 73.7,552.5 73.5,553.3 C73.3,554.2 73.2,555.4 73.2,557 C73.2,557.6 73.3,558.4 73.3,559.2 C73.3,559.9 73.4,560.8 73.4,561.8 C73.4,563.1 73.5,564.5 73.5,565.8 C73.5,567 73.6,568.2 73.6,569.4 L74.4,587 C74.4,588 74.9,588.9 75.5,589.6 C76.1,590.2 77,590.6 77.8,590.6 L95.5,590.6 C96.4,590.6 97.2,590.2 97.8,589.6 C98.4,588.9 98.9,588 98.9,587 L99.7,569.4 C99.8,568 99.8,566.7 99.8,565.4 C99.8,564.2 99.9,562.9 99.9,561.7 C99.9,560.7 100,559.9 100,559.1 C100,558.3 100.1,557.5 100.1,556.8 C100.1,555.2 100,554 99.8,553.1 C99.6,552.3 99.4,551.8 99,551.4 L99,551.4 C98.7,551.1 98.3,550.9 97.9,550.8 C97.6,550.8 96.9,550.7 96,550.7" id="down"></path>
                <path d="M4.1,471 L38.9,471 C40.6,471 42.1,470.3 43.2,469.2 C44.3,468.1 45,466.6 45,464.9 L45,445.5 C45,444.6 44.6,443.8 44,443.2 L44,443.2 C43.4,442.6 42.6,442.2 41.7,442.2 L4.1,442.2 C3.2,442.2 2.4,442.6 1.8,443.2 C1.2,443.8 0.8,444.6 0.8,445.5 L0.8,467.7 C0.8,468.6 1.2,469.4 1.7,470 C2.4,470.7 3.2,471 4.1,471" id="tools"></path>
                <path d="M125.9,445.6 L125.9,465 C125.9,466.7 126.6,468.2 127.7,469.3 C128.8,470.4 130.3,471.1 132,471.1 L166.8,471.1 C167.7,471.1 168.5,470.7 169.1,470.1 C169.7,469.5 170,468.7 170,467.8 L170,445.6 C170,444.7 169.6,443.9 169,443.3 C168.4,442.7 167.6,442.3 166.7,442.3 L129.2,442.3 C128.3,442.3 127.5,442.7 126.9,443.3 L126.9,443.3 C126.3,443.9 125.9,444.7 125.9,445.6" id="info"></path>
                <path d="M166.8,558.5 L132,558.5 C130.3,558.5 128.8,559.2 127.7,560.3 C126.6,561.4 125.9,562.9 125.9,564.6 L125.9,584 C125.9,584.9 126.3,585.7 126.9,586.3 L126.9,586.3 C127.5,586.9 128.3,587.3 129.2,587.3 L166.8,587.3 C167.7,587.3 168.5,586.9 169.1,586.3 C169.7,585.7 170,584.9 170,584 L170,561.8 C170,560.9 169.6,560.1 169,559.5 C168.5,558.9 167.7,558.5 166.8,558.5" id="exit"></path>
                <path d="M45,584 L45,564.6 C45,562.9 44.3,561.4 43.2,560.3 C42.1,559.2 40.6,558.5 38.9,558.5 L4.1,558.5 C3.2,558.5 2.4,558.9 1.8,559.5 C1.2,560.1 0.8,560.9 0.8,561.8 L0.8,584 C0.8,584.9 1.2,585.7 1.7,586.3 C2.3,586.9 3.1,587.3 4,587.3 L41.6,587.3 C42.5,587.3 43.3,586.9 43.9,586.3 L43.9,586.3 C44.6,585.7 45,584.9 45,584" id="return"></path>
                <path d="M5.5,419.2 L43.1,419.2 C44,419.2 44.8,418.8 45.4,418.3 L45.4,418.3 C46,417.7 46.3,416.9 46.3,416 L46.3,393.8 C46.3,392.9 45.9,392.1 45.3,391.5 L45.3,391.5 C44.7,390.9 43.9,390.5 43,390.5 L5.5,390.5 C4.6,390.5 3.8,390.9 3.2,391.5 L3.2,391.5 C2.6,392.1 2.2,392.9 2.2,393.8 L2.2,416 C2.2,416.9 2.6,417.7 3.2,418.3 C3.8,418.8 4.6,419.2 5.5,419.2" id="menu"></path>
                <path d="M127.3,393.7 L127.3,415.9 C127.3,416.8 127.7,417.6 128.3,418.2 C128.9,418.8 129.7,419.2 130.6,419.2 L168.2,419.2 C169.1,419.2 169.9,418.8 170.5,418.3 L170.5,418.3 C171.1,417.7 171.4,416.9 171.4,416 L171.4,393.8 C171.4,392.9 171,392.1 170.4,391.5 L170.4,391.5 C169.8,390.9 169,390.5 168.1,390.5 L130.5,390.5 C129.6,390.5 128.8,390.9 128.2,391.5 L128.2,391.5 C127.7,392 127.3,392.8 127.3,393.7" id="guide"></path>
                <path d="M74.3,293.6 L99.5,293.6 C100.6,293.6 101.6,293.2 102.3,292.4 C103,291.7 103.5,290.7 103.5,289.6 L103.5,258.2 C103.5,257.1 103.1,256.1 102.3,255.4 C101.6,254.7 100.6,254.2 99.5,254.2 L74.3,254.2 C73.2,254.2 72.2,254.6 71.5,255.4 L71.5,255.4 C70.8,256.1 70.3,257.1 70.3,258.2 L70.3,289.6 C70.3,290.7 70.7,291.7 71.5,292.4 L71.5,292.4 C72.1,293.2 73.1,293.6 74.3,293.6" id="mute"></path>
            </g>
            <g id="Group" fill="#000000">
                <path d="M54.2,92.4 C68,92.4 79.2,81.2 79.2,67.4 C79.2,53.6 68,42.4 54.2,42.4 C40.4,42.4 29.2,53.6 29.2,67.4 C29.2,81.2 40.5,92.4 54.2,92.4 Z M54.2,44.4 C66.9,44.4 77.2,54.7 77.2,67.4 C77.2,80.1 66.9,90.4 54.2,90.4 C41.5,90.4 31.2,80.1 31.2,67.4 C31.2,54.7 41.6,44.4 54.2,44.4 Z" id="Shape"></path>
                <path d="M158.1,87.3 L201.4,87.3 C203.5,87.3 205.2,85.6 205.2,83.5 L205.2,51.3 C205.2,49.2 203.5,47.5 201.4,47.5 L158.1,47.5 C156,47.5 154.3,49.2 154.3,51.3 L154.3,83.5 C154.3,85.6 156,87.3 158.1,87.3 Z M156.3,51.3 C156.3,50.3 157.1,49.5 158.1,49.5 L201.4,49.5 C202.4,49.5 203.2,50.3 203.2,51.3 L203.2,83.5 C203.2,84.5 202.4,85.3 201.4,85.3 L158.1,85.3 C157.1,85.3 156.3,84.5 156.3,83.5 L156.3,51.3 Z" id="Shape"></path>
                <path d="M37.3,102.6 C33.6,102.6 30.6,105.6 30.6,109.3 L30.6,131.5 C30.6,135.2 33.6,138.2 37.3,138.2 L74.9,138.2 C78.6,138.2 81.6,135.2 81.6,131.5 L81.6,109.3 C81.6,105.6 78.6,102.6 74.9,102.6 C74.9,102.6 37.3,102.6 37.3,102.6 Z M79.6,109.3 L79.6,131.5 C79.6,134.1 77.5,136.2 74.9,136.2 L37.3,136.2 C34.7,136.2 32.6,134.1 32.6,131.5 L32.6,109.3 C32.6,106.7 34.7,104.6 37.3,104.6 L74.9,104.6 C77.5,104.6 79.6,106.7 79.6,109.3 Z" id="Shape"></path>
                <path d="M99.8,138.2 L137.4,138.2 C141.1,138.2 144.1,135.2 144.1,131.5 L144.1,109.3 C144.1,105.6 141.1,102.6 137.4,102.6 L99.8,102.6 C96.1,102.6 93.1,105.6 93.1,109.3 L93.1,131.5 C93.2,135.2 96.2,138.2 99.8,138.2 Z M95.2,109.3 C95.2,106.7 97.3,104.6 99.9,104.6 L137.5,104.6 C140.1,104.6 142.2,106.7 142.2,109.3 L142.2,131.5 C142.2,134.1 140.1,136.2 137.5,136.2 L99.8,136.2 C97.2,136.2 95.1,134.1 95.1,131.5 L95.2,109.3 L95.2,109.3 Z" id="Shape"></path>
                <path d="M206.6,109.3 C206.6,105.6 203.6,102.6 199.9,102.6 L162.3,102.6 C158.6,102.6 155.6,105.6 155.6,109.3 L155.6,131.5 C155.6,135.2 158.6,138.2 162.3,138.2 L200,138.2 C203.7,138.2 206.7,135.2 206.7,131.5 L206.6,109.3 L206.6,109.3 Z M204.6,131.5 C204.6,134.1 202.5,136.2 199.9,136.2 L162.3,136.2 C159.7,136.2 157.6,134.1 157.6,131.5 L157.6,109.3 C157.6,106.7 159.7,104.6 162.3,104.6 L200,104.6 C202.6,104.6 204.7,106.7 204.7,109.3 L204.6,131.5 L204.6,131.5 Z" id="Shape"></path>
                <path d="M37.3,184.2 L74.9,184.2 C78.6,184.2 81.6,181.2 81.6,177.5 L81.6,155.3 C81.6,151.6 78.6,148.6 74.9,148.6 L37.3,148.6 C33.6,148.6 30.6,151.6 30.6,155.3 L30.6,177.5 C30.6,181.2 33.6,184.2 37.3,184.2 Z M32.6,155.3 C32.6,152.7 34.7,150.6 37.3,150.6 L74.9,150.6 C77.5,150.6 79.6,152.7 79.6,155.3 L79.6,177.5 C79.6,180.1 77.5,182.2 74.9,182.2 L37.3,182.2 C34.7,182.2 32.6,180.1 32.6,177.5 L32.6,155.3 Z" id="Shape"></path>
                <path d="M99.8,184.2 L137.4,184.2 C141.1,184.2 144.1,181.2 144.1,177.5 L144.1,155.3 C144.1,151.6 141.1,148.6 137.4,148.6 L99.8,148.6 C96.1,148.6 93.1,151.6 93.1,155.3 L93.1,177.5 C93.2,181.2 96.2,184.2 99.8,184.2 Z M95.2,155.3 C95.2,152.7 97.3,150.6 99.9,150.6 L137.5,150.6 C140.1,150.6 142.2,152.7 142.2,155.3 L142.2,177.5 C142.2,180.1 140.1,182.2 137.5,182.2 L99.8,182.2 C97.2,182.2 95.1,180.1 95.1,177.5 L95.2,155.3 L95.2,155.3 Z" id="Shape"></path>
                <path d="M206.6,155.3 C206.6,151.6 203.6,148.6 199.9,148.6 L162.3,148.6 C158.6,148.6 155.6,151.6 155.6,155.3 L155.6,177.5 C155.6,181.2 158.6,184.2 162.3,184.2 L200,184.2 C203.7,184.2 206.7,181.2 206.7,177.5 L206.6,155.3 L206.6,155.3 Z M204.6,177.6 C204.6,180.2 202.5,182.3 199.9,182.3 L162.3,182.3 C159.7,182.3 157.6,180.2 157.6,177.6 L157.6,155.4 C157.6,152.8 159.7,150.7 162.3,150.7 L200,150.7 C202.6,150.7 204.7,152.8 204.7,155.4 L204.6,177.6 L204.6,177.6 Z" id="Shape"></path>
                <path d="M30.6,223.6 C30.6,227.3 33.6,230.3 37.3,230.3 L74.9,230.3 C78.6,230.3 81.6,227.3 81.6,223.6 L81.6,201.4 C81.6,197.7 78.6,194.7 74.9,194.7 L37.3,194.7 C33.6,194.7 30.6,197.7 30.6,201.4 C30.6,201.4 30.6,223.6 30.6,223.6 Z M32.6,201.4 C32.6,198.8 34.7,196.7 37.3,196.7 L74.9,196.7 C77.5,196.7 79.6,198.8 79.6,201.4 L79.6,223.6 C79.6,226.2 77.5,228.3 74.9,228.3 L37.3,228.3 C34.7,228.3 32.6,226.2 32.6,223.6 L32.6,201.4 Z" id="Shape"></path>
                <path d="M99.8,230.3 L137.4,230.3 C141.1,230.3 144.1,227.3 144.1,223.6 L144.1,201.4 C144.1,197.7 141.1,194.7 137.4,194.7 L99.8,194.7 C96.1,194.7 93.1,197.7 93.1,201.4 L93.1,223.6 C93.2,227.3 96.2,230.3 99.8,230.3 Z M95.2,201.4 C95.2,198.8 97.3,196.7 99.9,196.7 L137.5,196.7 C140.1,196.7 142.2,198.8 142.2,201.4 L142.2,223.6 C142.2,226.2 140.1,228.3 137.5,228.3 L99.8,228.3 C97.2,228.3 95.1,226.2 95.1,223.6 L95.2,201.4 L95.2,201.4 Z" id="Shape"></path>
                <path d="M206.6,201.4 C206.6,197.7 203.6,194.7 199.9,194.7 L162.3,194.7 C158.6,194.7 155.6,197.7 155.6,201.4 L155.6,223.6 C155.6,227.3 158.6,230.3 162.3,230.3 L200,230.3 C203.7,230.3 206.7,227.3 206.7,223.6 L206.6,201.4 L206.6,201.4 Z M204.6,223.6 C204.6,226.2 202.5,228.3 199.9,228.3 L162.3,228.3 C159.7,228.3 157.6,226.2 157.6,223.6 L157.6,201.4 C157.6,198.8 159.7,196.7 162.3,196.7 L200,196.7 C202.6,196.7 204.7,198.8 204.7,201.4 L204.6,223.6 L204.6,223.6 Z" id="Shape"></path>
                <path d="M30.6,269.3 C30.6,273 33.6,276 37.3,276 L74.9,276 C78.6,276 81.6,273 81.6,269.3 L81.6,247.1 C81.6,243.4 78.6,240.4 74.9,240.4 L37.3,240.4 C33.6,240.4 30.6,243.4 30.6,247.1 C30.6,247.1 30.6,269.3 30.6,269.3 Z M32.6,247.1 C32.6,244.5 34.7,242.4 37.3,242.4 L74.9,242.4 C77.5,242.4 79.6,244.5 79.6,247.1 L79.6,269.3 C79.6,271.9 77.5,274 74.9,274 L37.3,274 C34.7,274 32.6,271.9 32.6,269.3 L32.6,247.1 Z" id="Shape"></path>
                <path d="M99.8,276 L137.4,276 C141.1,276 144.1,273 144.1,269.3 L144.1,247.1 C144.1,243.4 141.1,240.4 137.4,240.4 L99.8,240.4 C96.1,240.4 93.1,243.4 93.1,247.1 L93.1,269.3 C93.2,273 96.2,276 99.8,276 Z M95.2,247.1 C95.2,244.5 97.3,242.4 99.9,242.4 L137.5,242.4 C140.1,242.4 142.2,244.5 142.2,247.1 L142.2,269.3 C142.2,271.9 140.1,274 137.5,274 L99.8,274 C97.2,274 95.1,271.9 95.1,269.3 L95.2,247.1 L95.2,247.1 Z" id="Shape"></path>
                <path d="M200,240.5 L162.4,240.5 C158.7,240.5 155.7,243.5 155.7,247.2 L155.7,269.4 C155.7,273.1 158.7,276.1 162.4,276.1 L200,276.1 C203.7,276.1 206.7,273.1 206.7,269.4 L206.7,247.2 C206.6,243.4 203.6,240.5 200,240.5 Z M204.6,269.3 C204.6,271.9 202.5,274 199.9,274 L162.3,274 C159.7,274 157.6,271.9 157.6,269.3 L157.6,247.1 C157.6,244.5 159.7,242.4 162.3,242.4 L200,242.4 C202.6,242.4 204.7,244.5 204.7,247.1 L204.6,269.3 L204.6,269.3 Z" id="Shape"></path>
                <path d="M62.4,650.5 L33.3,650.5 C31.2,650.5 29.5,652.2 29.5,654.3 L29.5,675.2 C29.5,677.3 31.2,679 33.3,679 L62.4,679 C64.5,679 66.2,677.3 66.2,675.2 L66.2,654.3 C66.2,652.2 64.5,650.5 62.4,650.5 Z M64.2,675.2 C64.2,676.2 63.4,677 62.4,677 L33.3,677 C32.3,677 31.5,676.2 31.5,675.2 L31.5,654.3 C31.5,653.3 32.3,652.5 33.3,652.5 L62.4,652.5 C63.4,652.5 64.2,653.3 64.2,654.3 C64.2,654.3 64.2,675.2 64.2,675.2 Z" id="Shape"></path>
                <path d="M204.3,650.5 L175.2,650.5 C173.1,650.5 171.4,652.2 171.4,654.3 L171.4,675.2 C171.4,677.3 173.1,679 175.2,679 L204.3,679 C206.4,679 208.1,677.3 208.1,675.2 L208.1,654.3 C208.1,652.2 206.4,650.5 204.3,650.5 Z M206.1,675.2 C206.1,676.2 205.3,677 204.3,677 L175.2,677 C174.2,677 173.4,676.2 173.4,675.2 L173.4,654.3 C173.4,653.3 174.2,652.5 175.2,652.5 L204.3,652.5 C205.3,652.5 206.1,653.3 206.1,654.3 L206.1,675.2 Z" id="Shape"></path>
                <path d="M157,650.5 L127.9,650.5 C125.8,650.5 124.1,652.2 124.1,654.3 L124.1,675.2 C124.1,677.3 125.8,679 127.9,679 L157,679 C159.1,679 160.8,677.3 160.8,675.2 L160.8,654.3 C160.8,652.2 159.1,650.5 157,650.5 Z M158.8,675.2 C158.8,676.2 158,677 157,677 L127.9,677 C126.9,677 126.1,676.2 126.1,675.2 L126.1,654.3 C126.1,653.3 126.9,652.5 127.9,652.5 L157,652.5 C158,652.5 158.8,653.3 158.8,654.3 L158.8,675.2 Z" id="Shape"></path>
                <path d="M109.7,650.5 L80.6,650.5 C78.5,650.5 76.8,652.2 76.8,654.3 L76.8,675.2 C76.8,677.3 78.5,679 80.6,679 L109.7,679 C111.8,679 113.5,677.3 113.5,675.2 L113.5,654.3 C113.5,652.2 111.8,650.5 109.7,650.5 Z M111.5,675.2 C111.5,676.2 110.7,677 109.7,677 L80.6,677 C79.6,677 78.8,676.2 78.8,675.2 L78.8,654.3 C78.8,653.3 79.6,652.5 80.6,652.5 L109.7,652.5 C110.7,652.5 111.5,653.3 111.5,654.3 L111.5,675.2 L111.5,675.2 Z" id="Shape"></path>
                <path d="M62.4,688.6 L33.3,688.6 C31.2,688.6 29.5,690.3 29.5,692.4 L29.5,713.3 C29.5,715.4 31.2,717.1 33.3,717.1 L62.4,717.1 C64.5,717.1 66.2,715.4 66.2,713.3 L66.2,692.4 C66.2,690.3 64.5,688.6 62.4,688.6 Z M64.2,713.3 C64.2,714.3 63.4,715.1 62.4,715.1 L33.3,715.1 C32.3,715.1 31.5,714.3 31.5,713.3 L31.5,692.4 C31.5,691.4 32.3,690.6 33.3,690.6 L62.4,690.6 C63.4,690.6 64.2,691.4 64.2,692.4 C64.2,692.4 64.2,713.3 64.2,713.3 Z" id="Shape"></path>
                <path d="M62.4,726.7 L33.3,726.7 C31.2,726.7 29.5,728.4 29.5,730.5 L29.5,751.4 C29.5,753.5 31.2,755.2 33.3,755.2 L62.4,755.2 C64.5,755.2 66.2,753.5 66.2,751.4 L66.2,730.5 C66.2,728.5 64.5,726.7 62.4,726.7 Z M64.2,751.4 C64.2,752.4 63.4,753.2 62.4,753.2 L33.3,753.2 C32.3,753.2 31.5,752.4 31.5,751.4 L31.5,730.5 C31.5,729.5 32.3,728.7 33.3,728.7 L62.4,728.7 C63.4,728.7 64.2,729.5 64.2,730.5 C64.2,730.5 64.2,751.4 64.2,751.4 Z" id="Shape"></path>
                <path d="M204.3,688.6 L175.2,688.6 C173.1,688.6 171.4,690.3 171.4,692.4 L171.4,713.3 C171.4,715.4 173.1,717.1 175.2,717.1 L204.3,717.1 C206.4,717.1 208.1,715.4 208.1,713.3 L208.1,692.4 C208.1,690.3 206.4,688.6 204.3,688.6 Z M206.1,713.3 C206.1,714.3 205.3,715.1 204.3,715.1 L175.2,715.1 C174.2,715.1 173.4,714.3 173.4,713.3 L173.4,692.4 C173.4,691.4 174.2,690.6 175.2,690.6 L204.3,690.6 C205.3,690.6 206.1,691.4 206.1,692.4 L206.1,713.3 Z" id="Shape"></path>
                <path d="M157,688.6 L127.9,688.6 C125.8,688.6 124.1,690.3 124.1,692.4 L124.1,713.3 C124.1,715.4 125.8,717.1 127.9,717.1 L157,717.1 C159.1,717.1 160.8,715.4 160.8,713.3 L160.8,692.4 C160.8,690.3 159.1,688.6 157,688.6 Z M158.8,713.3 C158.8,714.3 158,715.1 157,715.1 L127.9,715.1 C126.9,715.1 126.1,714.3 126.1,713.3 L126.1,692.4 C126.1,691.4 126.9,690.6 127.9,690.6 L157,690.6 C158,690.6 158.8,691.4 158.8,692.4 L158.8,713.3 Z" id="Shape"></path>
                <path d="M109.7,688.6 L80.6,688.6 C78.5,688.6 76.8,690.3 76.8,692.4 L76.8,713.3 C76.8,715.4 78.5,717.1 80.6,717.1 L109.7,717.1 C111.8,717.1 113.5,715.4 113.5,713.3 L113.5,692.4 C113.5,690.3 111.8,688.6 109.7,688.6 Z M111.5,713.3 C111.5,714.3 110.7,715.1 109.7,715.1 L80.6,715.1 C79.6,715.1 78.8,714.3 78.8,713.3 L78.8,692.4 C78.8,691.4 79.6,690.6 80.6,690.6 L109.7,690.6 C110.7,690.6 111.5,691.4 111.5,692.4 L111.5,713.3 L111.5,713.3 Z" id="Shape"></path>
                <path d="M204.3,726.7 L175.2,726.7 C173.1,726.7 171.4,728.4 171.4,730.5 L171.4,751.4 C171.4,753.5 173.1,755.2 175.2,755.2 L204.3,755.2 C206.4,755.2 208.1,753.5 208.1,751.4 L208.1,730.5 C208.1,728.5 206.4,726.7 204.3,726.7 Z M206.1,751.4 C206.1,752.4 205.3,753.2 204.3,753.2 L175.2,753.2 C174.2,753.2 173.4,752.4 173.4,751.4 L173.4,730.5 C173.4,729.5 174.2,728.7 175.2,728.7 L204.3,728.7 C205.3,728.7 206.1,729.5 206.1,730.5 L206.1,751.4 Z" id="Shape"></path>
                <path d="M157,726.7 L127.9,726.7 C125.8,726.7 124.1,728.4 124.1,730.5 L124.1,751.4 C124.1,753.5 125.8,755.2 127.9,755.2 L157,755.2 C159.1,755.2 160.8,753.5 160.8,751.4 L160.8,730.5 C160.8,728.5 159.1,726.7 157,726.7 Z M158.8,751.4 C158.8,752.4 158,753.2 157,753.2 L127.9,753.2 C126.9,753.2 126.1,752.4 126.1,751.4 L126.1,730.5 C126.1,729.5 126.9,728.7 127.9,728.7 L157,728.7 C158,728.7 158.8,729.5 158.8,730.5 L158.8,751.4 Z" id="Shape"></path>
                <path d="M109.7,726.7 L80.6,726.7 C78.5,726.7 76.8,728.4 76.8,730.5 L76.8,751.4 C76.8,753.5 78.5,755.2 80.6,755.2 L109.7,755.2 C111.8,755.2 113.5,753.5 113.5,751.4 L113.5,730.5 C113.5,728.5 111.8,726.7 109.7,726.7 Z M111.5,751.4 C111.5,752.4 110.7,753.2 109.7,753.2 L80.6,753.2 C79.6,753.2 78.8,752.4 78.8,751.4 L78.8,730.5 C78.8,729.5 79.6,728.7 80.6,728.7 L109.7,728.7 C110.7,728.7 111.5,729.5 111.5,730.5 L111.5,751.4 L111.5,751.4 Z" id="Shape"></path>
                <path d="M37.3,432.7 C33.6,432.7 30.6,435.7 30.6,439.4 L30.6,461.6 C30.6,465.3 33.6,468.3 37.3,468.3 L74.9,468.3 C78.6,468.3 81.6,465.3 81.6,461.6 L81.6,439.4 C81.6,435.7 78.6,432.7 74.9,432.7 L37.3,432.7 Z M79.6,439.4 L79.6,461.6 C79.6,464.2 77.5,466.3 74.9,466.3 L37.3,466.3 C34.7,466.3 32.6,464.2 32.6,461.6 L32.6,439.4 C32.6,436.8 34.7,434.7 37.3,434.7 L74.9,434.7 C77.5,434.7 79.6,436.8 79.6,439.4 Z" id="Shape"></path>
                <path d="M96,427.8 L96,459.7 C96,464.3 99.7,468 104.3,468 L132.9,468 C137.5,468 141.2,464.3 141.2,459.7 L141.2,427.8 C141.2,423.2 137.5,419.5 132.9,419.5 L104.3,419.5 C99.7,419.5 96,423.2 96,427.8 Z M104.3,421.5 L132.9,421.5 C136.4,421.5 139.2,424.3 139.2,427.8 L139.2,459.7 C139.2,463.2 136.4,466 132.9,466 L104.3,466 C100.8,466 98,463.2 98,459.7 L98,427.8 C98,424.3 100.8,421.5 104.3,421.5 Z" id="Shape"></path>
                <path d="M206.6,439.4 C206.6,435.7 203.6,432.7 199.9,432.7 L162.3,432.7 C158.6,432.7 155.6,435.7 155.6,439.4 L155.6,461.6 C155.6,465.3 158.6,468.3 162.3,468.3 L200,468.3 C203.7,468.3 206.7,465.3 206.7,461.6 L206.6,439.4 L206.6,439.4 Z M204.6,461.6 C204.6,464.2 202.5,466.3 199.9,466.3 L162.3,466.3 C159.7,466.3 157.6,464.2 157.6,461.6 L157.6,439.4 C157.6,436.8 159.7,434.7 162.3,434.7 L200,434.7 C202.6,434.7 204.7,436.8 204.7,439.4 L204.6,461.6 L204.6,461.6 Z" id="Shape"></path>
                <path d="M35.9,520.2 L70.7,520.2 C75.9,520.2 80.2,515.9 80.2,510.7 L80.2,491.3 C80.2,487.6 77.2,484.6 73.5,484.6 L35.9,484.6 C32.2,484.6 29.2,487.6 29.2,491.3 L29.2,513.5 C29.2,517.2 32.2,520.2 35.9,520.2 Z M31.2,491.3 C31.2,488.7 33.3,486.6 35.9,486.6 L73.5,486.6 C76.1,486.6 78.2,488.7 78.2,491.3 L78.2,510.7 C78.2,514.8 74.8,518.2 70.7,518.2 L35.9,518.2 C33.3,518.2 31.2,516.1 31.2,513.5 L31.2,491.3 Z" id="Shape"></path>
                <path d="M198.6,484.6 L161,484.6 C157.3,484.6 154.3,487.6 154.3,491.3 L154.3,510.7 C154.3,515.9 158.6,520.2 163.8,520.2 L198.6,520.2 C202.3,520.2 205.3,517.2 205.3,513.5 L205.3,491.3 C205.2,487.6 202.2,484.6 198.6,484.6 Z M203.2,513.5 C203.2,516.1 201.1,518.2 198.5,518.2 L163.7,518.2 C159.6,518.2 156.2,514.8 156.2,510.7 L156.2,491.3 C156.2,488.7 158.3,486.6 160.9,486.6 L198.5,486.6 C201.1,486.6 203.2,488.7 203.2,491.3 L203.2,513.5 L203.2,513.5 Z" id="Shape"></path>
                <path d="M30.6,294.3 L30.6,414.4 C30.6,416.5 32.3,418.2 34.4,418.2 L85.2,418.2 C87.3,418.2 89,416.5 89,414.4 L89,294.3 C89,292.2 87.3,290.5 85.2,290.5 L34.5,290.5 C32.4,290.5 30.6,292.2 30.6,294.3 Z M87.1,294.3 L87.1,414.4 C87.1,415.4 86.3,416.2 85.3,416.2 L34.5,416.2 C33.5,416.2 32.7,415.4 32.7,414.4 L32.7,294.3 C32.7,293.3 33.5,292.5 34.5,292.5 L85.3,292.5 C86.3,292.5 87.1,293.3 87.1,294.3 Z" id="Shape"></path>
                <path d="M152.3,418.2 L203.1,418.2 C205.2,418.2 206.9,416.5 206.9,414.4 L206.9,294.3 C206.9,292.2 205.2,290.5 203.1,290.5 L152.3,290.5 C150.2,290.5 148.5,292.2 148.5,294.3 L148.5,414.4 C148.5,416.5 150.2,418.2 152.3,418.2 Z M150.5,294.3 C150.5,293.3 151.3,292.5 152.3,292.5 L203.1,292.5 C204.1,292.5 204.9,293.3 204.9,294.3 L204.9,414.4 C204.9,415.4 204.1,416.2 203.1,416.2 L152.3,416.2 C151.3,416.2 150.5,415.4 150.5,414.4 L150.5,294.3 Z" id="Shape"></path>
                <path d="M106.1,342.8 L131.3,342.8 C135.4,342.8 138.7,339.5 138.7,335.4 L138.7,304 C138.7,299.9 135.4,296.6 131.3,296.6 L106.1,296.6 C102,296.6 98.7,299.9 98.7,304 L98.7,335.4 C98.6,339.4 102,342.8 106.1,342.8 Z M100.6,303.9 C100.6,300.9 103,298.5 106,298.5 L131.2,298.5 C134.2,298.5 136.6,300.9 136.6,303.9 L136.6,335.3 C136.6,338.3 134.2,340.7 131.2,340.7 L106,340.7 C103,340.7 100.6,338.3 100.6,335.3 L100.6,303.9 Z" id="Shape"></path>
                <path d="M98.6,394.1 C98.6,398.2 101.9,401.5 106,401.5 L131.2,401.5 C135.3,401.5 138.6,398.2 138.6,394.1 L138.6,362.7 C138.6,358.6 135.3,355.3 131.2,355.3 L106,355.3 C101.9,355.3 98.6,358.6 98.6,362.7 L98.6,394.1 Z M100.6,362.7 C100.6,359.7 103,357.3 106,357.3 L131.2,357.3 C134.2,357.3 136.6,359.7 136.6,362.7 L136.6,394.1 C136.6,397.1 134.2,399.5 131.2,399.5 L106,399.5 C103,399.5 100.6,397.1 100.6,394.1 L100.6,362.7 Z" id="Shape"></path>
                <path d="M80.2,629.7 L80.2,610.3 C80.2,605.1 75.9,600.8 70.7,600.8 L35.9,600.8 C32.2,600.8 29.2,603.8 29.2,607.5 L29.2,629.7 C29.2,633.4 32.2,636.4 35.9,636.4 L73.5,636.4 C77.2,636.4 80.2,633.4 80.2,629.7 Z M78.2,629.7 C78.2,632.3 76.1,634.4 73.5,634.4 L35.9,634.4 C33.3,634.4 31.2,632.3 31.2,629.7 L31.2,607.5 C31.2,604.9 33.3,602.8 35.9,602.8 L70.7,602.8 C74.8,602.8 78.2,606.2 78.2,610.3 L78.2,629.7 L78.2,629.7 Z" id="Shape"></path>
                <path d="M205.2,629.7 L205.2,607.5 C205.2,603.8 202.2,600.8 198.5,600.8 L163.7,600.8 C158.5,600.8 154.2,605.1 154.2,610.3 L154.2,629.7 C154.2,633.4 157.2,636.4 160.9,636.4 L198.5,636.4 C202.2,636.4 205.2,633.4 205.2,629.7 Z M156.3,629.7 L156.3,610.3 C156.3,606.2 159.7,602.8 163.8,602.8 L198.6,602.8 C201.2,602.8 203.3,604.9 203.3,607.5 L203.3,629.7 C203.3,632.3 201.2,634.4 198.6,634.4 L161,634.4 C158.4,634.4 156.3,632.3 156.3,629.7 Z" id="Shape"></path>
                <path d="M206.6,0 L30.9,0 C13.9,0 0,13.9 0,30.9 L0,862.3 C0,879.3 13.9,893.2 30.9,893.2 L206.6,893.2 C223.6,893.2 237.5,879.3 237.5,862.3 L237.5,30.9 C237.5,13.9 223.7,0 206.6,0 Z M144.7,4 C138.8,6.6 132.6,8.3 126.2,9 C125.9,8.9 125.5,8.8 125.2,8.6 C125,8.5 124.7,8.4 124.5,8.3 C124.1,8.2 123.7,8.1 123.3,8 C123.1,7.9 122.8,7.9 122.6,7.8 C122.2,7.7 121.7,7.7 121.3,7.6 C121.1,7.6 120.9,7.5 120.8,7.5 C119.5,7.4 118.2,7.4 117,7.5 C116.8,7.5 116.7,7.6 116.5,7.6 C116,7.7 115.6,7.7 115.1,7.8 C114.9,7.8 114.7,7.9 114.5,8 C114.1,8.1 113.7,8.2 113.3,8.3 C113.1,8.4 112.8,8.5 112.6,8.6 C112.3,8.7 111.9,8.8 111.6,9 C105,8.3 98.8,6.6 92.9,4 L144.7,4 Z M4,862.3 L4,30.9 C4,22.7 7.7,15.4 13.4,10.5 C11.7,13.4 10.6,16.8 10.6,20.5 L10.6,872.8 C10.6,876.4 11.6,879.8 13.4,882.8 C7.7,877.8 4,870.4 4,862.3 Z M217.8,886.7 C214.4,888.3 210.6,889.1 206.6,889.1 L30.9,889.1 C26.9,889.1 23.1,888.2 19.7,886.7 C15.4,883.5 12.6,878.4 12.6,872.7 L12.6,20.4 C12.6,14.7 15.4,9.6 19.7,6.4 C23.1,4.9 26.9,4 30.9,4 L90.5,4 C96.6,6.9 103,8.8 109.7,9.8 L109.6,9.8 L111.5,10 L111.6,10 L111.6,10 C114,10.3 116.4,10.4 118.8,10.4 C121.2,10.4 123.6,10.3 126,10 L126,10 L126.1,10 L128,9.8 L127.9,9.8 C134.6,8.9 141,6.9 147.1,4 L206.7,4 C210.7,4 214.5,4.9 217.9,6.4 C222.2,9.6 225,14.7 225,20.4 L225,872.7 C224.9,878.5 222.1,883.6 217.8,886.7 Z M233.5,862.3 C233.5,870.5 229.8,877.8 224.1,882.7 C225.8,879.8 226.9,876.4 226.9,872.7 L226.9,20.4 C226.9,16.8 225.9,13.4 224.1,10.4 C229.9,15.3 233.5,22.7 233.5,30.8 L233.5,862.3 Z" id="Shape"></path>
                <path d="M202.3,540.6 L160.8,538.9 C153.4,538.7 146.1,537.5 143.2,530.1 C142.8,529.1 142.5,527.9 142.2,526.6 C141.2,521.5 141,516.1 140.9,510.8 C140.9,509.5 140.8,508.1 140.8,506.8 L140,489.2 C139.7,482.3 134.2,476.9 127.5,476.9 L109.8,476.9 C103.1,476.9 97.6,482.3 97.3,489.2 L96.5,506.8 C96.4,508.1 96.4,509.5 96.4,510.8 C96.2,516.1 96,521.5 95.1,526.6 C94.8,527.9 94.5,529 94.2,530.1 C91.3,537.5 84,538.7 76.6,539 L35.1,540.7 C28.2,541 22.8,546.4 22.8,553 L22.8,569.4 C22.8,576 28.2,581.5 35.1,581.7 L76.6,583.4 C84,583.6 91.3,584.8 94.2,592.2 C94.6,593.3 94.9,594.4 95.2,595.7 C96.2,600.8 96.4,606.2 96.5,611.5 C96.5,612.8 96.6,614.2 96.6,615.5 L97.4,633.1 C97.7,640 103.2,645.4 109.9,645.4 L127.6,645.4 C134.3,645.4 139.8,640 140.1,633.1 L140.9,615.5 C141,614.2 141,612.8 141,611.5 C141.2,606.2 141.4,600.8 142.3,595.7 C142.6,594.4 142.9,593.3 143.2,592.2 C146.1,584.8 153.4,583.6 160.8,583.3 L202.3,581.6 C209.2,581.3 214.6,575.9 214.6,569.3 L214.6,553 C214.6,546.3 209.2,540.9 202.3,540.6 Z M212.6,569.4 C212.6,575 208,579.5 202.2,579.7 L160.7,581.4 C153,581.6 144.6,583 141.3,591.5 C140.9,592.7 140.5,593.9 140.3,595.3 L140.3,595.3 C139.3,600.5 139.1,606.1 138.9,611.4 C138.9,612.7 138.8,614.1 138.8,615.4 L138,633 C137.8,638.8 133.1,643.4 127.5,643.4 L109.8,643.4 C104.1,643.4 99.5,638.8 99.3,633 L98.5,615.4 C98.4,614.1 98.4,612.8 98.4,611.4 C98.2,606 98,600.5 97,595.3 C96.7,593.9 96.4,592.7 96,591.5 C92.6,583 84.3,581.6 76.6,581.4 L35,579.7 C29.2,579.5 24.6,574.9 24.6,569.4 L24.6,553 C24.6,547.4 29.2,542.9 35,542.7 L76.5,541 C84.2,540.8 92.6,539.4 95.9,530.9 C96.3,529.7 96.7,528.5 96.9,527.1 C97.9,521.9 98.1,516.3 98.3,511 C98.3,509.7 98.4,508.3 98.4,507 L99.2,489.4 C99.4,483.6 104.1,479 109.7,479 L127.4,479 C133.1,479 137.7,483.6 137.9,489.4 L138.7,507 C138.8,508.3 138.8,509.6 138.8,511 C139,516.4 139.2,521.9 140.2,527.1 C140.5,528.5 140.8,529.7 141.2,530.9 C144.6,539.4 152.9,540.8 160.6,541 L202.1,542.7 C207.9,542.9 212.5,547.5 212.5,553 L212.5,569.4 L212.6,569.4 Z" id="Shape"></path>
                <path d="M79.3,544.5 L79.3,544.5 L79.3,544.5 C78.4,544.6 77.5,544.6 76.7,544.6 L35.2,546.3 C31.4,546.5 28.3,549.4 28.3,553 L28.3,569.4 C28.3,573 31.3,575.9 35.2,576.1 L76.6,577.8 C77.5,577.8 78.3,577.9 79.2,577.9 L79.3,577.9 L79.4,577.9 C82.9,577.8 86.9,576.8 86.9,570.4 L86.9,552 C86.8,545.6 82.8,544.6 79.3,544.5 Z M84.8,570.4 C84.8,574.8 82.8,575.8 79.3,575.9 C78.4,575.8 77.6,575.8 76.7,575.8 L35.3,574.1 C32.9,574 30.4,572.2 30.4,569.4 L30.4,553 C30.4,550.2 32.9,548.4 35.3,548.3 L76.8,546.6 C77.7,546.6 78.5,546.5 79.3,546.5 C82.8,546.7 84.8,547.6 84.8,552 L84.8,570.4 L84.8,570.4 Z" id="Shape"></path>
                <path d="M109.4,529.4 L127.8,529.4 C130.4,529.4 132.3,528.8 133.6,527.5 C135.5,525.6 135.7,522.4 135.6,519.5 C135.5,518.1 135.4,516.6 135.3,514.7 C135.3,513.5 135.2,512.3 135.2,511.1 C135.2,509.8 135.1,508.4 135.1,507.1 L134.3,489.5 C134.1,485.7 131.1,482.6 127.4,482.6 L109.7,482.6 C106.1,482.6 103,485.7 102.8,489.5 L102,507.1 C101.9,508.4 101.9,509.8 101.9,511.1 C101.9,512.3 101.8,513.5 101.8,514.7 C101.7,516.5 101.6,518 101.5,519.4 L101.5,519.5 C101.4,522.3 101.6,525.5 103.5,527.4 C104.9,528.7 106.8,529.4 109.4,529.4 Z M103.6,519.5 C103.7,518.1 103.8,516.6 103.9,514.7 C103.9,513.5 104,512.3 104,511.1 C104,509.8 104.1,508.4 104.1,507.1 L104.9,489.5 C105,486.8 107.2,484.5 109.8,484.5 L127.5,484.5 C130.1,484.5 132.2,486.7 132.4,489.5 L133.2,507.1 C133.3,508.4 133.3,509.7 133.3,511.1 C133.3,512.3 133.4,513.5 133.4,514.7 C133.5,516.6 133.6,518.1 133.7,519.5 C133.8,522.9 133.3,524.9 132.2,526 C131.3,526.9 129.9,527.3 127.8,527.3 L109.4,527.3 C107.4,527.3 105.9,526.9 105,526 C104,524.9 103.6,523 103.6,519.5 Z" id="Shape"></path>
                <path d="M202.1,546.3 L160.7,544.6 C159.8,544.6 159,544.5 158.1,544.5 L158,544.5 L157.9,544.5 C154.4,544.6 150.4,545.6 150.4,552 L150.4,570.4 C150.4,576.8 154.4,577.8 157.9,577.9 L158,577.9 L158.1,577.9 C158.9,577.8 159.8,577.8 160.6,577.8 L202.1,576.1 C205.9,575.9 209,573 209,569.4 L209,553 C208.9,549.4 205.9,546.5 202.1,546.3 Z M206.9,569.4 C206.9,572.2 204.4,574 202,574.1 L160.5,575.8 C159.6,575.8 158.8,575.9 158,575.9 C154.5,575.7 152.5,574.8 152.5,570.4 L152.5,552 C152.5,547.6 154.5,546.6 158,546.5 C158.9,546.6 159.7,546.6 160.6,546.6 L202,548.3 C204.4,548.4 206.9,550.2 206.9,553 L206.9,569.4 Z" id="Shape"></path>
                <path d="M131,541.7 L106.5,541.7 C102.5,541.7 99.2,545 99.2,549 L99.2,572.4 C99.2,577 103,580.8 107.6,580.8 L131,580.8 C135,580.8 138.3,577.5 138.3,573.5 L138.3,549 C138.3,544.9 135,541.7 131,541.7 Z M131,578.7 L107.6,578.7 C104.1,578.7 101.2,575.8 101.2,572.3 L101.2,548.9 C101.2,546 103.6,543.6 106.5,543.6 L131,543.6 C133.9,543.6 136.3,546 136.3,548.9 L136.3,573.4 C136.3,576.4 133.9,578.7 131,578.7 Z" id="Shape"></path>
                <path d="M128,593 L109.6,593 C107,593 105.1,593.6 103.8,594.9 C101.9,596.8 101.7,600 101.8,602.9 C101.9,604.3 102,605.8 102.1,607.6 C102.1,608.8 102.2,610 102.2,611.2 C102.2,612.5 102.3,613.9 102.3,615.2 L103.1,632.8 C103.3,636.6 106.3,639.7 110,639.7 L127.7,639.7 C131.3,639.7 134.4,636.6 134.6,632.8 L135.4,615.2 C135.5,613.9 135.5,612.5 135.5,611.2 C135.5,610 135.6,608.8 135.6,607.6 C135.7,605.8 135.8,604.3 135.9,602.9 L135.9,602.8 C136,600 135.8,596.8 133.9,594.9 C132.5,593.7 130.6,593 128,593 Z M133.5,607.6 C133.5,608.8 133.4,610 133.4,611.2 C133.4,612.5 133.3,613.9 133.3,615.2 L132.5,632.8 C132.4,635.5 130.2,637.8 127.6,637.8 L109.9,637.8 C107.3,637.8 105.2,635.6 105,632.8 L104.2,615.2 C104.1,613.9 104.1,612.5 104.1,611.2 C104.1,610 104,608.8 104,607.6 C103.9,605.8 103.8,604.2 103.7,602.9 C103.6,599.5 104.1,597.5 105.2,596.4 C106.1,595.5 107.5,595.1 109.6,595.1 L128,595.1 C130,595.1 131.5,595.5 132.4,596.4 C133.5,597.5 133.9,599.5 133.9,602.9 C133.7,604.3 133.6,605.8 133.5,607.6 Z" id="Shape"></path>
            </g>
            <g id="Group" transform="translate(32.500000, 49.700000)" fill="#000000">
                <path d="M137.9,298.6 L137.9,315.8 L143.2,315.8 L143.2,309.4 L146.1,309.4 C148.2,309.4 149.8,308.9 150.9,307.9 C151.9,306.9 152.5,305.6 152.5,303.8 C152.5,302.1 152,300.8 151.1,299.9 C150.1,299 148.7,298.5 146.8,298.5 L137.9,298.6 L137.9,298.6 Z M147.3,304.1 C147.3,304.7 147.1,305.1 146.7,305.5 C146.3,305.9 145.6,306 144.5,306 L143.2,306 L143.2,302.2 L144.7,302.2 C145.7,302.2 146.4,302.4 146.7,302.8 C147.1,303.1 147.3,303.5 147.3,304.1 Z" id="Shape"></path>
                <path d="M132.7,278.6 L145.2,269.7 L157.7,278.6 C158.2,279 158.8,279.1 159.3,279.1 C160.2,279.1 161.1,278.7 161.6,277.9 C162.5,276.6 162.2,274.9 160.9,273.9 L146.8,263.9 C145.8,263.2 144.5,263.2 143.5,263.9 L129.4,273.9 C128.1,274.8 127.8,276.6 128.7,277.9 C129.7,279.2 131.4,279.5 132.7,278.6 Z" id="Path"></path>
                <path d="M145.2,351.4 C145.8,351.4 146.4,351.2 146.8,350.9 L160.9,340.9 C162.2,340 162.5,338.2 161.6,336.9 C160.7,335.6 158.9,335.3 157.6,336.2 L145.1,345.1 L132.6,336.2 C131.3,335.3 129.6,335.6 128.6,336.9 C127.7,338.2 128,339.9 129.3,340.9 L143.4,350.9 C144,351.3 144.6,351.4 145.2,351.4 Z" id="Path"></path>
                <polygon id="Path" points="30.2 291.4 30.2 279.7 41.9 279.7 41.9 274 30.2 274 30.2 262.3 24.5 262.3 24.5 274 12.8 274 12.8 279.7 24.5 279.7 24.5 291.4"></polygon>
                <rect id="Rectangle" x="12.8" y="340.8" width="29.1" height="5.7"></rect>
                <polygon id="Path" points="43.7 312.5 43.7 301.6 11.1 312.5"></polygon>
                <path d="M148.5,455.4 L145.2,455.9 L145,456.7 C145.1,456.7 145.3,456.7 145.4,456.7 C145.6,456.7 145.8,456.8 145.9,456.9 C146,457 146.1,457.1 146.1,457.3 C146.1,457.5 146,457.8 145.9,458.3 L144.6,462.3 C144.5,462.7 144.4,462.9 144.4,463.2 C144.4,463.5 144.5,463.8 144.8,464 C145,464.2 145.4,464.3 145.8,464.3 C146.9,464.3 147.9,463.5 148.8,461.8 L148.1,461.4 C147.7,462 147.1,462.3 147.1,462.1 L149.1,455.6 L148.5,455.6 L148.5,455.4 Z" id="Path"></path>
                <path d="M149.6,452.5 C149.6,452.1 149.5,451.8 149.2,451.5 C148.9,451.2 148.6,451.1 148.2,451.1 C147.8,451.1 147.5,451.2 147.2,451.5 C146.9,451.8 146.8,452.1 146.8,452.5 C146.8,452.9 146.9,453.2 147.2,453.5 C147.5,453.8 147.8,453.9 148.2,453.9 C148.6,453.9 148.9,453.8 149.2,453.5 C149.5,453.2 149.6,452.8 149.6,452.5 Z" id="Path"></path>
                <path d="M21.7,32.2 C25.6,32.2 29.2,30.7 32,27.9 C34.7,25.2 36.3,21.5 36.3,17.6 C36.3,13.7 34.8,10.1 32,7.3 C30.5,5.8 28.6,4.6 26.6,3.9 L25.5,7.3 C27,7.8 28.4,8.7 29.5,9.9 C31.6,12 32.7,14.8 32.7,17.7 C32.7,20.6 31.6,23.4 29.5,25.5 C27.4,27.6 24.6,28.7 21.7,28.7 C18.8,28.7 16,27.6 13.9,25.5 C11.8,23.4 10.7,20.6 10.7,17.7 C10.7,14.8 11.8,12 13.9,9.9 C15,8.8 16.4,7.9 17.9,7.3 L16.8,4 C14.8,4.7 12.9,5.9 11.4,7.4 C8.7,10.1 7.1,13.8 7.1,17.7 C7.1,21.6 8.6,25.2 11.4,28 C14.2,30.8 17.9,32.2 21.7,32.2 Z" id="Path"></path>
                <rect id="Rectangle" x="20" y="1.42108547e-14" width="3.5" height="16.3"></rect>
                <path d="M71.2,690.9 C66.7,688.6 62.1,686.4 57.6,684.1 C57.1,683.8 56.8,683.8 56.8,684.6 L56.8,684.6 L56.8,688.8 L56.8,693.3 L56.8,693.4 L56.8,693.5 L56.8,693.6 L56.8,693.7 L56.8,693.8 L56.8,693.9 L56.8,694 L56.8,694.1 L56.8,694.2 L56.8,694.3 L56.8,694.4 L56.8,694.5 L56.8,694.6 L56.8,694.7 L56.8,694.8 L56.8,694.9 L56.8,695 L56.8,695.1 L56.8,695.2 L56.8,695.3 L56.8,695.4 L56.8,695.5 L56.8,695.6 L56.8,695.7 L56.8,695.8 L56.8,695.9 L56.8,696 L56.8,696.1 L56.8,696.2 L56.8,696.3 L56.8,696.4 L56.8,696.5 L56.8,696.6 L56.8,696.7 L56.8,696.8 L56.8,696.9 L56.8,697 L56.8,697.1 L56.8,697.2 L56.8,697.3 L56.8,697.4 L56.8,697.5 L56.8,697.6 L56.8,699.1 C56.8,699.8 57.1,700 57.7,699.6 C62.5,697.2 66.8,695.1 71.3,692.8 C71.9,691.4 71.9,691.3 71.2,690.9 Z" id="Path"></path>
                <path d="M167.6,691 C163.7,689.1 159.8,687.1 155.9,685.2 C155.4,685 155.2,684.9 155.2,685.7 L155.2,685.7 L155.2,689.3 L155.2,689.8 C152.1,688.3 149,686.7 146,685.2 C145.5,685 145.3,684.9 145.3,685.7 L145.3,685.7 L145.3,689.3 L145.3,693.2 L145.3,693.3 L145.3,693.4 L145.3,693.5 L145.3,693.6 L145.3,693.7 L145.3,693.8 L145.3,693.9 L145.3,694 L145.3,694.1 L145.3,694.2 L145.3,694.3 L145.3,694.4 L145.3,694.5 L145.3,694.6 L145.3,694.7 L145.3,694.8 L145.3,694.9 L145.3,695 L145.3,695.1 L145.3,695.2 L145.3,695.3 L145.3,695.4 L145.3,695.5 L145.3,695.6 L145.3,695.7 L145.3,695.8 L145.3,695.9 L145.3,696 L145.3,696.1 L145.3,696.2 L145.3,696.3 L145.3,696.4 L145.3,696.5 L145.3,696.6 L145.3,696.7 L145.3,696.8 L145.3,696.9 L145.3,697 L145.3,697.1 L145.3,697.2 L145.3,697.3 L145.3,697.4 L145.3,697.5 L145.3,698.8 C145.3,699.4 145.5,699.5 146.1,699.3 C149.3,697.7 152.2,696.2 155.2,694.7 L155.2,694.9 L155.2,695 L155.2,695.1 L155.2,695.2 L155.2,695.3 L155.2,695.4 L155.2,695.5 L155.2,695.6 L155.2,695.7 L155.2,695.8 L155.2,695.9 L155.2,696 L155.2,696.1 L155.2,696.2 L155.2,696.3 L155.2,696.4 L155.2,696.5 L155.2,696.6 L155.2,696.7 L155.2,696.8 L155.2,696.9 L155.2,697 L155.2,697.1 L155.2,697.2 L155.2,697.3 L155.2,697.4 L155.2,697.5 L155.2,697.6 L155.2,697.7 L155.2,697.8 L155.2,697.9 L155.2,698 L155.2,698.1 L155.2,698.2 L155.2,698.3 L155.2,698.4 L155.2,698.5 L155.2,698.6 L155.2,698.7 L155.2,698.8 L155.2,698.9 L155.2,699 L155.2,699.1 L155.2,699.2 L155.2,700.5 C155.2,701.1 155.4,701.2 156,701 C160.1,698.9 163.8,697.1 167.7,695.2 C168.2,691.4 168.2,691.3 167.6,691 Z" id="Path"></path>
                <path d="M26.4,685.1 C23.3,686.6 20.2,688.2 17.2,689.7 L17.2,689.2 L17.2,685.6 L17.2,685.6 C17.2,684.9 17,684.9 16.5,685.1 C12.6,687 8.7,689 4.8,690.9 C4.2,691.2 4.3,691.3 4.7,691.5 C8.6,693.4 12.3,695.3 16.4,697.3 C17,697.6 17.2,697.5 17.2,696.8 L17.2,695.5 L17.2,695.4 L17.2,695.3 L17.2,695.2 L17.2,695.1 L17.2,695 L17.2,694.9 L17.2,695.3 L17.2,695.2 L17.2,695.1 L17.2,695 L17.2,694.9 L17.2,694.8 L17.2,694.7 L17.2,694.6 L17.2,694.5 L17.2,694.4 L17.2,694.3 L17.2,694.2 L17.2,694.1 L17.2,694 L17.2,693.9 L17.2,693.8 L17.2,694.3 L17.2,694.3 L17.2,694.2 L17.2,694.1 L17.2,694 L17.2,693.9 L17.2,693.8 L17.2,693.7 L17.2,693.6 L17.2,693.5 L17.2,693.4 L17.2,693.3 L17.2,693.2 L17.2,693.1 L17.2,693 L17.2,692.9 L17.2,692.8 L17.2,693.3 L17.2,693.2 L17.2,693.1 L17.2,693 L17.2,692.8 C20.2,694.3 23.1,695.8 26.3,697.4 C26.9,697.7 27.1,697.6 27.1,696.9 L27.1,695.6 L27.1,695.5 L27.1,695.4 L27.1,695.3 L27.1,695.2 L27.1,695.1 L27.1,695 L27.1,695.3 L27.1,695.2 L27.1,695.1 L27.1,695 L27.1,694.9 L27.1,694.8 L27.1,694.7 L27.1,694.6 L27.1,694.5 L27.1,694.4 L27.1,694.3 L27.1,694.2 L27.1,694.1 L27.1,694 L27.1,693.9 L27.1,693.8 L27.1,694.3 L27.1,694.3 L27.1,694.2 L27.1,694.1 L27.1,694 L27.1,693.9 L27.1,693.8 L27.1,693.7 L27.1,693.6 L27.1,693.5 L27.1,693.4 L27.1,693.3 L27.1,693.2 L27.1,693.1 L27.1,693 L27.1,692.9 L27.1,692.8 L27.1,693.3 L27.1,693.2 L27.1,693.1 L27.1,693 L27.1,689.1 L27.1,685.5 L27.1,685.5 C27.1,684.9 26.9,684.9 26.4,685.1 Z" id="Path"></path>
                <path d="M27.1,581.1 C27.9,580.5 28.6,579.7 29,578.8 C29.5,577.9 29.8,576.9 29.9,575.9 C30,574.9 29.9,573.9 29.6,572.9 C29.3,571.9 28.8,571 28.2,570.2 C27.6,569.4 26.8,568.7 25.9,568.3 C25,567.9 24,567.5 23,567.4 C22,567.3 21,567.4 20,567.7 C19,568 18.1,568.5 17.3,569.1 C17,569.4 16.7,569.6 16.4,570 L15.4,569.4 L15.4,569.4 C15.1,569.2 15,569.3 15,569.6 L14.5,574 C14.4,574.3 14.4,574.6 14.4,575 L14.2,576.7 C14.2,577 14.2,577.1 14.5,576.9 C16.5,575.7 18.5,574.5 20.5,573.3 C20.8,573.1 20.8,573 20.5,572.8 L19.9,572.4 L19.9,572.4 L19.9,572.4 L19.9,572.4 L19.9,572.4 L19.9,572.4 L19.9,572.4 L19.9,572.4 L19.9,572.4 L19.9,572.4 L19.9,572.4 L19.9,572.4 L19.9,572.4 L19.9,572.4 L19.9,572.4 L19.9,572.4 L19.9,572.4 L19.9,572.4 L19.9,572.4 L19.9,572.4 L19.9,572.4 L19.9,572.4 L19.9,572.4 L19.9,572.4 L19.9,572.4 L19.9,572.4 L19.9,572.4 L19.9,572.4 L19.9,572.4 L19.9,572.4 L19.9,572.4 L19.9,572.4 L19.9,572.4 L19.9,572.4 L19.9,572.4 L19.9,572.4 L19.9,572.4 L19.9,572.4 L19.9,572.4 L19.9,572.4 L19.9,572.4 L19.9,572.4 L19.9,572.4 C20,572.3 20.1,572.3 20.1,572.2 C20.6,571.8 21.2,571.5 21.8,571.3 C22.4,571.1 23.1,571.1 23.7,571.1 C24.3,571.2 25,571.4 25.5,571.7 C26.1,572 26.6,572.4 27,572.9 C27.4,573.4 27.7,574 27.9,574.6 C28.1,575.2 28.1,575.9 28.1,576.5 C28,577.1 27.8,577.8 27.5,578.3 C26.9,579.4 25.9,580.3 24.6,580.6 C24,580.8 23.3,580.8 22.7,580.8 C22.1,580.7 21.4,580.5 20.9,580.2 C20.6,580 20.2,579.8 20,579.5 C19.7,579.2 19.5,579 19.3,578.6 L19.1,578.3 L16.8,579.9 L17,580.2 C17.3,580.7 17.7,581.1 18.2,581.5 C18.6,581.9 19.1,582.3 19.7,582.5 C20.6,583 21.6,583.3 22.6,583.4 C23.6,583.5 24.6,583.4 25.6,583.1 C25.4,582.2 26.3,581.8 27.1,581.1 Z" id="Path"></path>
                <path d="M148.3,579 L149.3,579 L149.3,582.7 L155.8,579 L155.8,568.2 L148.3,568.2 L144.6,568.2 L144.6,573.5 C143.6,573 142.6,572.5 141.7,572 C141.6,571.9 141.5,571.9 141.5,572.1 L141.5,572.1 L141.5,572.8 L138.7,572.8 L138.7,574.2 L141.5,574.2 L141.5,574.2 L141.5,574.2 L141.5,574.2 L141.5,574.2 L141.5,574.2 L141.5,574.2 L141.5,574.2 L141.5,574.2 L141.5,574.2 L141.5,574.2 L141.5,574.2 L141.5,574.2 L141.5,574.2 L141.5,574.2 L141.5,574.2 L141.5,574.2 L141.5,574.2 L141.5,574.2 L141.5,574.2 L141.5,574.2 L141.5,574.2 L141.5,574.2 L141.5,574.2 L141.5,574.2 L141.5,574.2 L141.5,574.2 L141.5,574.2 L141.5,574.2 L141.5,574.2 L141.5,574.5 C141.5,574.7 141.6,574.7 141.7,574.6 C142.7,574.1 143.6,573.6 144.6,573.1 L144.6,578.3 L148.3,578.3 L148.3,579 Z M146.3,570 L148.2,570 L152.5,570 L149.2,571.9 L149.2,577.2 L148.2,577.2 L146.3,577.2 L146.3,570 Z" id="Shape"></path>
                <path d="M151.3,648.9 L151.3,657.4 C151.3,658.3 152.1,659.1 153,659.1 L161.4,659.1 C162.3,659.1 163.1,658.3 163.1,657.4 L163.1,648.9 C163.1,648 162.3,647.2 161.4,647.2 L153,647.2 C152.1,647.2 151.3,648 151.3,648.9 Z" id="Path"></path>
                <path d="M114.9,685.3 L111.4,685.3 C110.9,685.3 110.5,685.7 110.5,686.2 L110.5,696.3 C110.5,696.8 110.9,697.2 111.4,697.2 L114.9,697.2 C115.4,697.2 115.8,696.8 115.8,696.3 L115.8,686.2 C115.8,685.7 115.4,685.3 114.9,685.3 Z" id="Path"></path>
                <path d="M108.4,685.3 L104.9,685.3 C104.4,685.3 104,685.7 104,686.2 L104,696.3 C104,696.8 104.4,697.2 104.9,697.2 L108.4,697.2 C108.9,697.2 109.3,696.8 109.3,696.3 L109.3,686.2 C109.3,685.7 108.9,685.3 108.4,685.3 Z" id="Path"></path>
                <path d="M160.2,18.9 C160.2,16.9 158.6,15.4 156.7,15.4 L140,15.4 C138,15.4 136.5,17 136.5,18.9 L136.5,22.8 L132.9,22.8 L132.9,24.4 L136.5,24.4 L136.5,28.3 C136.5,30.3 138.1,31.8 140,31.8 L156.7,31.8 C158.7,31.8 160.2,30.2 160.2,28.3 L160.2,18.9 Z M158.8,28.3 C158.8,29.5 157.8,30.4 156.7,30.4 L140,30.4 C138.8,30.4 137.9,29.4 137.9,28.3 L137.9,24.4 L143.1,24.4 C143.1,25.1 143,26.1 143,26.8 C143,27.1 143.1,27.2 143.4,27 C145.6,25.9 147.6,24.9 149.6,23.9 C149.8,23.8 149.9,23.7 149.6,23.6 C147.5,22.6 145.4,21.5 143.3,20.5 C143.1,20.4 142.9,20.4 142.9,20.8 L142.9,22.9 L137.8,22.9 L137.8,19 C137.8,17.8 138.8,16.9 139.9,16.9 L156.6,16.9 C157.8,16.9 158.7,17.9 158.7,19 L158.7,28.3 L158.8,28.3 Z" id="Shape"></path>
                <path d="M131.1,11.4 C132,11.4 132.8,11.2 133.3,10.8 C133.8,10.4 134.1,9.7 134.1,8.8 C134.1,8.5 134.1,8.3 134,8.1 C134,7.9 133.9,7.7 133.7,7.5 C133.6,7.3 133.4,7.2 133.2,7 C133,6.8 132.7,6.7 132.4,6.6 L131.1,6 C130.7,5.8 130.5,5.7 130.4,5.5 C130.3,5.3 130.2,5.1 130.2,4.8 C130.2,4.7 130.2,4.5 130.2,4.4 C130.2,4.3 130.3,4.2 130.4,4.1 C130.5,4 130.6,3.9 130.7,3.9 C130.8,3.8 131,3.8 131.2,3.8 C131.5,3.8 131.8,3.9 131.9,4.1 C132,4.3 132.1,4.6 132.1,5 L133.8,5 L133.8,4.8 C133.8,4.4 133.7,4 133.6,3.8 C133.5,3.6 133.3,3.3 133,3.1 C132.8,2.9 132.5,2.8 132.2,2.7 C131.9,2.6 131.5,2.6 131.1,2.6 C130.3,2.6 129.6,2.8 129.2,3.2 C128.7,3.6 128.5,4.2 128.5,5.1 C128.5,5.5 128.5,5.8 128.6,6 C128.7,6.3 128.8,6.5 129,6.7 C129.2,6.9 129.4,7.1 129.7,7.2 C130,7.4 130.3,7.5 130.7,7.6 C131,7.7 131.2,7.8 131.4,7.9 C131.6,8 131.8,8.1 131.9,8.2 C132,8.3 132.1,8.4 132.2,8.6 C132.3,8.7 132.3,8.9 132.3,9.1 C132.3,9.5 132.2,9.7 132,9.9 C131.8,10.1 131.5,10.2 131.3,10.2 C131.1,10.2 130.9,10.2 130.7,10.1 C130.6,10 130.4,9.9 130.3,9.8 C130.2,9.7 130.2,9.6 130.1,9.4 C130,9.2 130.1,9.1 130.1,8.9 L130.1,8.6 L128.4,8.6 L128.4,8.9 C128.4,9.7 128.6,10.3 129,10.7 C129.4,11.1 130.1,11.4 131.1,11.4 Z" id="Path"></path>
                <path d="M135.2,10.2 C135.4,10.6 135.7,10.9 136.1,11.1 C136.5,11.3 137,11.4 137.6,11.4 C138.2,11.4 138.8,11.3 139.1,11.1 C139.4,10.9 139.8,10.6 140,10.2 C140.2,9.8 140.3,9.3 140.4,8.8 C140.5,8.3 140.5,7.7 140.5,7 C140.5,6.4 140.5,5.8 140.4,5.2 C140.3,4.7 140.2,4.2 140,3.8 C139.8,3.4 139.5,3.1 139.1,2.9 C138.7,2.7 138.2,2.6 137.6,2.6 C137,2.6 136.4,2.7 136.1,2.9 C135.7,3.1 135.4,3.4 135.2,3.8 C135,4.2 134.9,4.7 134.8,5.2 C134.7,5.7 134.7,6.3 134.7,7 C134.7,7.7 134.7,8.3 134.8,8.8 C134.9,9.3 135,9.8 135.2,10.2 Z M136.5,5.5 C136.5,5.1 136.6,4.8 136.7,4.5 C136.8,4.2 136.9,4.1 137.1,3.9 C137.3,3.7 137.5,3.7 137.7,3.7 C137.9,3.7 138.2,3.8 138.3,3.9 C138.5,4 138.6,4.2 138.7,4.5 C138.8,4.8 138.8,5.1 138.9,5.5 C138.9,5.9 138.9,6.4 138.9,7 C138.9,7.6 138.9,8.1 138.9,8.5 C138.9,8.9 138.8,9.2 138.7,9.5 C138.6,9.8 138.5,9.9 138.3,10.1 C138.1,10.2 137.9,10.3 137.7,10.3 C137.5,10.3 137.2,10.2 137.1,10.1 C136.9,10 136.8,9.8 136.7,9.5 C136.6,9.2 136.6,8.9 136.5,8.5 C136.5,8.1 136.5,7.6 136.5,7 C136.5,6.4 136.5,5.9 136.5,5.5 Z" id="Shape"></path>
                <path d="M142.3,10.9 C142.6,11.1 142.8,11.2 143.2,11.3 C143.5,11.4 143.9,11.4 144.2,11.4 C144.6,11.4 144.9,11.4 145.2,11.3 C145.5,11.2 145.8,11.1 146.1,10.9 C146.4,10.7 146.6,10.4 146.7,10.1 C146.9,9.7 146.9,9.3 146.9,8.8 L146.9,2.8 L145.2,2.8 L145.2,8.8 C145.2,9 145.2,9.2 145.2,9.4 C145.2,9.6 145.1,9.7 145,9.9 C144.9,10 144.8,10.1 144.7,10.2 C144.6,10.3 144.4,10.3 144.2,10.3 C144,10.3 143.8,10.3 143.7,10.2 C143.6,10.1 143.5,10 143.4,9.9 C143.3,9.8 143.3,9.6 143.2,9.4 C143.1,9.2 143.2,9 143.2,8.8 L143.2,2.8 L141.5,2.8 L141.5,8.8 C141.5,9.4 141.6,9.8 141.7,10.2 C141.9,10.4 142.1,10.7 142.3,10.9 Z" id="Path"></path>
                <path d="M149.8,7.6 L150.7,7.6 C151.1,7.6 151.3,7.7 151.5,7.9 C151.7,8.1 151.7,8.4 151.8,8.7 L151.8,10.3 C151.8,10.5 151.8,10.6 151.8,10.8 C151.8,11 151.9,11.1 152,11.2 L153.9,11.2 L153.9,11.1 C153.7,11 153.6,10.8 153.6,10.6 C153.6,10.4 153.5,10 153.5,9.6 C153.5,9.4 153.5,9.2 153.5,9 C153.5,8.8 153.5,8.6 153.5,8.5 C153.5,8 153.3,7.7 153.1,7.5 C152.9,7.3 152.6,7.1 152.2,7.1 L152.2,7.1 C152.7,7 153,6.8 153.3,6.4 C153.5,6 153.6,5.6 153.6,5 C153.6,4.3 153.4,3.7 153,3.3 C152.6,2.9 152,2.8 151.3,2.8 L148.1,2.8 L148.1,11.3 L149.8,11.3 L149.8,7.6 L149.8,7.6 Z M149.8,4 L150.6,4 C151.4,4 151.8,4.4 151.8,5.2 C151.8,5.7 151.7,6 151.5,6.2 C151.3,6.4 151,6.5 150.5,6.5 L149.8,6.5 L149.8,4 Z" id="Shape"></path>
                <path d="M155,10.2 C155.2,10.6 155.5,10.9 155.9,11.1 C156.3,11.3 156.8,11.4 157.4,11.4 C158,11.4 158.4,11.3 158.8,11.1 C159.2,10.9 159.4,10.7 159.6,10.4 C159.8,10.1 159.9,9.7 160,9.3 C160.1,8.9 160.1,8.4 160.1,8 L158.4,8 C158.4,8.5 158.4,8.8 158.3,9.1 C158.2,9.4 158.2,9.6 158.1,9.8 C158,10 157.9,10.1 157.8,10.1 C157.7,10.2 157.5,10.2 157.4,10.2 C157.2,10.2 157.1,10.2 156.9,10.1 C156.7,10 156.6,9.9 156.6,9.7 C156.5,9.5 156.4,9.2 156.4,8.8 C156.4,8.4 156.3,7.9 156.3,7.2 C156.3,6.6 156.3,6.1 156.3,5.7 C156.3,5.3 156.4,4.9 156.5,4.7 C156.6,4.4 156.7,4.3 156.8,4.1 C156.9,4 157.1,3.9 157.3,3.9 C157.7,3.9 158,4 158.1,4.3 C158.2,4.6 158.3,5 158.3,5.7 L160,5.7 C160,5.4 160,5.1 159.9,4.7 C159.9,4.3 159.7,4 159.6,3.7 C159.4,3.4 159.2,3.1 158.8,2.9 C158.4,2.7 158,2.6 157.3,2.6 C156.7,2.6 156.1,2.7 155.8,2.9 C155.4,3.1 155.1,3.4 154.9,3.8 C154.7,4.2 154.6,4.7 154.5,5.2 C154.4,5.7 154.5,6.3 154.5,7 C154.5,7.7 154.5,8.3 154.6,8.8 C154.7,9.3 154.8,9.8 155,10.2 Z" id="Path"></path>
                <polygon id="Path" points="166.1 9.9 162.9 9.9 162.9 7.6 165.8 7.6 165.8 6.1 162.9 6.1 162.9 4.1 165.9 4.1 165.9 2.7 161.2 2.7 161.2 11.3 166.1 11.3"></polygon>
                <path d="M90.6,286.8 C91.2,287.2 91.3,286.7 91.3,286.4 L91.3,276.9 L91.3,276.8 L91.3,276 L84.7,282.8 L90.6,286.8 Z" id="Path"></path>
                <path d="M76.8,273.2 L76.8,276.9 L76.8,277 L76.8,280.7 C76.8,281.2 77.1,281.9 77.9,281.9 L79.6,281.9 L91.4,269.7 L91.4,267.3 C91.4,267 91.3,266.5 90.7,266.9 L83.3,271.9 L82.5,271.9 L77.8,271.9 C77.1,272 76.8,272.7 76.8,273.2 Z" id="Path"></path>
                <path d="M78.5,286.1 C79,286.6 79.9,286.6 80.4,286.1 L95.8,270.2 C96.3,269.7 96.3,268.8 95.8,268.3 C95.3,267.8 94.4,267.8 93.9,268.3 L78.5,284.2 C77.9,284.8 77.9,285.6 78.5,286.1 Z" id="Path"></path>
                <polygon id="Path" points="144 557.4 144 555.9 139.2 555.9 139.2 564.5 144.1 564.5 144.1 563.1 141 563.1 141 560.8 143.8 560.8 143.8 559.4 141 559.4 141 557.4"></polygon>
                <polygon id="Path" points="146.4 564.5 147.6 561.6 148.8 564.5 150.8 564.5 148.6 560.2 150.6 555.9 148.7 555.9 147.7 558.7 146.6 555.9 144.6 555.9 146.6 560.2 144.5 564.5"></polygon>
                <rect id="Rectangle" x="151.5" y="555.9" width="1.7" height="8.6"></rect>
                <polygon id="Path" points="157.7 564.5 157.7 557.4 159.6 557.4 159.6 555.9 154.1 555.9 154.1 557.4 156 557.4 156 564.5"></polygon>
                <path d="M5,560.5 L5.9,560.5 C6.3,560.5 6.5,560.6 6.7,560.8 C6.9,561 6.9,561.3 7,561.6 L7,563.2 C7,563.4 7,563.5 7,563.7 C7,563.9 7.1,564 7.2,564.1 L9.1,564.1 L9.1,564 C8.9,563.9 8.8,563.7 8.8,563.5 C8.8,563.3 8.7,562.9 8.7,562.5 C8.7,562.3 8.7,562.1 8.7,561.9 C8.7,561.7 8.7,561.5 8.7,561.4 C8.7,560.9 8.5,560.6 8.3,560.4 C8.1,560.2 7.8,560 7.4,560 L7.4,560 C7.9,559.9 8.2,559.7 8.5,559.3 C8.7,558.9 8.8,558.5 8.8,557.9 C8.8,557.2 8.6,556.6 8.2,556.2 C7.8,555.8 7.2,555.7 6.5,555.7 L3.3,555.7 L3.3,564.3 L5,564.3 L5,560.5 L5,560.5 Z M5,556.8 L5.8,556.8 C6.6,556.8 7,557.2 7,558 C7,558.5 6.9,558.8 6.7,559 C6.5,559.2 6.2,559.3 5.7,559.3 L5,559.3 L5,556.8 Z" id="Shape"></path>
                <polygon id="Path" points="14.7 557 14.7 555.6 9.9 555.6 9.9 564.1 14.8 564.1 14.8 562.7 11.6 562.7 11.6 560.4 14.5 560.4 14.5 559 11.6 559 11.6 557"></polygon>
                <polygon id="Path" points="18.8 564.1 18.8 557 20.7 557 20.7 555.6 15.2 555.6 15.2 557 17.1 557 17.1 564.1"></polygon>
                <path d="M21.3,555.6 L21.3,561.6 C21.3,562.2 21.4,562.6 21.5,563 C21.7,563.4 21.9,563.6 22.1,563.8 C22.4,564 22.6,564.1 23,564.2 C23.3,564.3 23.7,564.3 24,564.3 C24.4,564.3 24.7,564.3 25,564.2 C25.3,564.1 25.6,564 25.9,563.8 C26.2,563.6 26.4,563.3 26.5,563 C26.7,562.6 26.7,562.2 26.7,561.7 L26.7,555.7 L25,555.7 L25,561.7 C25,561.9 25,562.1 25,562.3 C25,562.5 24.9,562.6 24.8,562.8 C24.7,562.9 24.6,563 24.5,563.1 C24.4,563.2 24.2,563.2 24,563.2 C23.8,563.2 23.6,563.2 23.5,563.1 C23.4,563 23.3,562.9 23.2,562.8 C23.1,562.7 23.1,562.5 23,562.3 C22.9,562.1 23,561.9 23,561.7 L23,555.7 L21.3,555.7 L21.3,555.6 Z" id="Path"></path>
                <path d="M33.4,563.6 C33.4,563.4 33.3,563 33.3,562.6 C33.3,562.4 33.3,562.2 33.3,562 C33.3,561.8 33.3,561.6 33.3,561.5 C33.3,561 33.1,560.7 32.9,560.5 C32.7,560.3 32.4,560.1 32,560.1 L32,560.1 C32.5,560 32.8,559.8 33.1,559.4 C33.3,559 33.4,558.6 33.4,558 C33.4,557.3 33.2,556.7 32.8,556.3 C32.4,555.9 31.8,555.8 31.1,555.8 L27.9,555.8 L27.9,564.4 L29.6,564.4 L29.6,560.8 L30.5,560.8 C30.9,560.8 31.1,560.9 31.3,561.1 C31.5,561.3 31.5,561.6 31.6,561.9 L31.6,563.5 C31.6,563.7 31.6,563.8 31.6,564 C31.6,564.2 31.7,564.3 31.8,564.4 L33.7,564.4 L33.7,564.3 C33.5,564 33.4,563.8 33.4,563.6 Z M31.3,559 C31.1,559.2 30.8,559.3 30.3,559.3 L29.6,559.3 L29.6,556.8 L30.4,556.8 C31.2,556.8 31.6,557.2 31.6,558 C31.6,558.5 31.5,558.8 31.3,559 Z" id="Shape"></path>
                <polygon id="Path" points="38.7 561.4 38.6 561.4 36.6 555.6 34.6 555.6 34.6 564.1 36.1 564.1 36.1 558.1 36.2 558.1 38.3 564.1 40.3 564.1 40.3 555.6 38.7 555.6"></polygon>
                <path d="M102.4,653.1 C102.3,652.9 102.1,652.8 101.9,652.6 C101.7,652.4 101.4,652.3 101.1,652.2 L99.8,651.6 C99.4,651.4 99.2,651.3 99.1,651.1 C99,650.9 98.9,650.7 98.9,650.4 C98.9,650.3 98.9,650.1 98.9,650 C98.9,649.9 99,649.8 99.1,649.7 C99.2,649.6 99.3,649.5 99.4,649.5 C99.5,649.4 99.7,649.4 99.9,649.4 C100.2,649.4 100.5,649.5 100.6,649.7 C100.7,649.9 100.8,650.2 100.8,650.6 L102.5,650.6 L102.5,650.4 C102.5,650 102.4,649.6 102.3,649.4 C102.2,649.1 102,648.9 101.7,648.7 C101.5,648.5 101.2,648.4 100.9,648.3 C100.6,648.2 100.2,648.2 99.8,648.2 C99,648.2 98.3,648.4 97.9,648.8 C97.5,649.2 97.2,649.8 97.2,650.7 C97.2,651.1 97.2,651.4 97.3,651.6 C97.4,651.9 97.5,652.1 97.7,652.3 C97.9,652.5 98.1,652.7 98.4,652.8 C98.7,652.9 99,653.1 99.4,653.2 C99.7,653.3 99.9,653.4 100.1,653.5 C100.3,653.6 100.5,653.7 100.6,653.8 C100.7,653.9 100.8,654 100.9,654.2 C101,654.3 101,654.5 101,654.7 C101,655.1 100.9,655.3 100.7,655.5 C100.5,655.7 100.2,655.8 100,655.8 C99.8,655.8 99.6,655.8 99.4,655.7 C99.3,655.6 99.1,655.5 99,655.4 C98.9,655.3 98.9,655.2 98.8,655 C98.8,654.8 98.8,654.7 98.8,654.5 L98.8,654.2 L97.1,654.2 L97.1,654.5 C97.1,655.3 97.3,655.9 97.7,656.3 C98.1,656.7 98.8,656.9 99.8,656.9 C100.7,656.9 101.5,656.7 102,656.3 C102.5,655.9 102.8,655.2 102.8,654.3 C102.8,654 102.8,653.8 102.7,653.6 C102.6,653.5 102.5,653.3 102.4,653.1 Z" id="Path"></path>
                <path d="M105.2,656.9 C105.5,657 105.9,657 106.2,657 C106.6,657 106.9,657 107.2,656.9 C107.5,656.8 107.8,656.7 108.1,656.5 C108.4,656.3 108.6,656 108.7,655.7 C108.9,655.3 108.9,654.9 108.9,654.4 L108.9,648.4 L107.2,648.4 L107.2,654.4 C107.2,654.6 107.2,654.8 107.2,655 C107.2,655.2 107.1,655.3 107,655.5 C106.9,655.7 106.8,655.7 106.7,655.8 C106.6,655.9 106.4,655.9 106.2,655.9 C106,655.9 105.8,655.9 105.7,655.8 C105.6,655.7 105.5,655.6 105.4,655.5 C105.3,655.4 105.3,655.2 105.2,655 C105.2,654.8 105.2,654.6 105.2,654.4 L105.2,648.4 L103.5,648.4 L103.5,654.4 C103.5,655 103.6,655.4 103.7,655.8 C103.9,656.2 104.1,656.4 104.3,656.6 C104.6,656.7 104.9,656.8 105.2,656.9 Z" id="Path"></path>
                <path d="M114.2,656.7 C114.5,656.6 114.8,656.4 115,656.2 C115.2,656 115.4,655.7 115.5,655.4 C115.6,655.1 115.6,654.8 115.6,654.4 C115.6,653.8 115.5,653.4 115.2,653 C114.9,652.7 114.5,652.5 114.1,652.4 L114.1,652.4 C114.5,652.3 114.9,652.1 115.1,651.7 C115.3,651.3 115.4,651 115.4,650.5 C115.4,650.1 115.3,649.7 115.2,649.5 C115.1,649.2 114.9,649 114.7,648.8 C114.5,648.6 114.2,648.5 113.9,648.4 C113.6,648.3 113.3,648.3 112.9,648.3 L110,648.3 L110,656.9 L112.9,656.9 C113.5,656.9 113.9,656.8 114.2,656.7 Z M111.8,649.6 L112.4,649.6 C112.8,649.6 113.1,649.7 113.3,649.9 C113.5,650.1 113.6,650.4 113.6,650.8 C113.6,651.2 113.5,651.5 113.3,651.7 C113.1,651.9 112.7,652 112.3,652 L111.8,652 L111.8,649.6 Z M111.8,655.6 L111.8,653 L112.5,653 C112.7,653 112.9,653 113,653.1 C113.2,653.1 113.3,653.2 113.4,653.3 C113.5,653.4 113.6,653.5 113.7,653.7 C113.8,653.9 113.8,654.1 113.8,654.3 C113.8,654.8 113.7,655.1 113.4,655.3 C113.1,655.5 112.8,655.6 112.4,655.6 L111.8,655.6 Z" id="Shape"></path>
                <polygon id="Path" points="121.7 648.3 116.3 648.3 116.3 649.7 118.1 649.7 118.1 656.9 119.9 656.9 119.9 649.7 121.7 649.7"></polygon>
                <rect id="Rectangle" x="121.4" y="655" width="1.6" height="1.9"></rect>
                <path d="M17,607.9 L13.7,607.9 L10.2,621.1 L13,621.1 L13.6,618.3 L17.1,618.3 L17.7,621.1 L20.5,621.1 L17,607.9 Z M14.1,616.1 L15.4,610.2 L15.4,610.2 L16.7,616.1 L14.1,616.1 Z" id="Shape"></path>
                <path d="M64.9,620.7 C65.4,620.5 65.8,620.2 66.2,619.9 C66.6,619.6 66.8,619.1 66.9,618.7 C67,618.3 67.1,617.7 67.1,617.2 C67.1,616.3 66.9,615.6 66.5,615.1 C66.1,614.6 65.5,614.3 64.7,614.2 L64.7,614.2 C65.4,614 65.9,613.7 66.2,613.2 C66.5,612.7 66.7,612.1 66.7,611.4 C66.7,610.8 66.6,610.2 66.4,609.8 C66.2,609.4 66,609 65.6,608.8 C65.3,608.5 64.9,608.4 64.4,608.2 C63.9,608.1 63.4,608 62.9,608 L58.4,608 L58.4,621.2 L62.9,621.2 C63.7,621.1 64.3,621 64.9,620.7 Z M61.1,609.8 L62.1,609.8 C62.8,609.8 63.3,609.9 63.6,610.2 C63.9,610.5 64.1,610.9 64.1,611.5 C64.1,612.1 63.9,612.6 63.6,612.8 C63.3,613.1 62.7,613.2 62,613.2 L61.2,613.2 L61.1,609.8 L61.1,609.8 Z M61.1,619.1 L61.1,615.1 L62.2,615.1 C62.5,615.1 62.8,615.1 63,615.2 C63.2,615.3 63.5,615.4 63.6,615.5 C63.8,615.7 63.9,615.9 64,616.1 C64.1,616.4 64.2,616.7 64.2,617.1 C64.2,617.9 64,618.4 63.6,618.7 C63.2,619 62.7,619.1 62,619.1 L61.1,619.1 L61.1,619.1 Z" id="Shape"></path>
                <path d="M106.3,619.4 C106.6,620 107.1,620.5 107.7,620.8 C108.3,621.1 109.1,621.3 110.1,621.3 C111,621.3 111.7,621.2 112.2,620.9 C112.7,620.6 113.2,620.3 113.5,619.8 C113.8,619.3 114,618.8 114.1,618.1 C114.2,617.5 114.3,616.8 114.3,616.1 L111.6,616.1 C111.6,616.8 111.6,617.4 111.5,617.8 C111.4,618.2 111.3,618.6 111.1,618.8 C111,619 110.8,619.2 110.6,619.3 C110.4,619.4 110.2,619.4 109.9,619.4 C109.6,619.4 109.4,619.3 109.2,619.2 C109,619.1 108.8,618.9 108.7,618.5 C108.6,618.2 108.5,617.7 108.4,617.1 C108.3,616.5 108.3,615.7 108.3,614.7 C108.3,613.8 108.3,613 108.4,612.3 C108.4,611.7 108.5,611.1 108.7,610.7 C108.8,610.3 109,610 109.2,609.8 C109.4,609.6 109.7,609.5 110,609.5 C110.6,609.5 111,609.7 111.2,610.2 C111.4,610.6 111.5,611.3 111.5,612.3 L114.2,612.3 C114.2,611.8 114.2,611.3 114.1,610.8 C114,610.3 113.9,609.7 113.6,609.3 C113.3,608.9 112.9,608.4 112.4,608.1 C111.9,607.8 111.1,607.6 110.2,607.6 C109.2,607.6 108.4,607.8 107.8,608.1 C107.2,608.4 106.8,608.9 106.4,609.5 C106.1,610.1 105.9,610.8 105.8,611.7 C105.7,612.6 105.7,613.5 105.7,614.5 C105.7,615.5 105.7,616.4 105.8,617.3 C105.8,618.1 106,618.8 106.3,619.4 Z" id="Path"></path>
                <path d="M153.7,621.1 L157.9,621.1 C158.8,621.1 159.5,621 160.1,620.7 C160.7,620.4 161.1,620 161.5,619.5 C161.8,618.9 162.1,618.2 162.2,617.4 C162.3,616.5 162.4,615.5 162.4,614.4 C162.4,613.4 162.3,612.5 162.2,611.8 C162.1,611.1 161.9,610.3 161.6,609.8 C161.3,609.2 160.8,608.8 160.3,608.5 C159.8,608.2 159,608 158.1,608 L153.7,608 L153.7,621.1 L153.7,621.1 Z M156.4,609.8 L157.5,609.8 C158,609.8 158.4,609.9 158.7,610.1 C159,610.3 159.2,610.6 159.4,611 C159.6,611.4 159.7,611.8 159.7,612.4 C159.7,613 159.8,613.6 159.8,614.4 C159.8,615.3 159.8,616.1 159.7,616.7 C159.6,617.3 159.5,617.8 159.4,618.2 C159.3,618.6 159,618.8 158.7,619 C158.4,619.2 158,619.2 157.6,619.2 L156.4,619.2 L156.4,609.8 Z" id="Shape"></path>
                <path d="M157.9,511.1 C150.9,508.7 143.9,506.2 137,503.8 C136.2,503.5 135.8,503.5 135.8,504.4 L135.8,504.4 L135.8,508.9 L135.8,518.6 C135.8,519.4 136.2,519.5 137.2,519.2 C144.5,516.6 151.1,514.3 158.1,511.9 C158.9,511.6 159,511.5 157.9,511.1 Z" id="Path"></path>
                <path d="M36.4,518.6 L36.4,518.6 L36.4,514.1 L36.4,504.4 C36.4,503.6 36,503.5 35,503.8 C27.7,506.4 21.1,508.7 14.1,511.1 C13.3,511.4 13.3,511.5 14.3,511.9 C21.3,514.3 28.3,516.8 35.2,519.2 C36.1,519.5 36.4,519.5 36.4,518.6 Z" id="Path"></path>
                <path d="M79.2,466.6 L79.2,466.6 L83.7,466.6 L93.4,466.6 C94.2,466.6 94.3,466.2 94,465.2 C91.4,457.9 89.1,451.3 86.7,444.3 C86.4,443.5 86.3,443.5 85.9,444.5 C83.5,451.5 81,458.5 78.6,465.4 C78.3,466.2 78.2,466.6 79.2,466.6 Z" id="Path"></path>
                <path d="M93.1,556.4 L93.1,556.4 L88.6,556.4 L78.9,556.4 C78.1,556.4 78,556.8 78.3,557.8 C80.9,565.1 83.2,571.7 85.6,578.7 C85.9,579.5 86,579.5 86.4,578.5 C88.8,571.5 91.3,564.5 93.7,557.6 C94,556.7 94,556.4 93.1,556.4 Z" id="Path"></path>
                <rect id="Rectangle" x="137.4" y="439.9" width="1.7" height="8.6"></rect>
                <polygon id="Path" points="142 442.5 142 442.5 144.1 448.5 146.1 448.5 146.1 439.9 144.5 439.9 144.5 445.8 144.5 445.8 142.4 439.9 140.4 439.9 140.4 448.5 142 448.5"></polygon>
                <polygon id="Path" points="152.1 441.3 152.1 439.9 147.3 439.9 147.3 448.5 149 448.5 149 444.8 151.9 444.8 151.9 443.3 149 443.3 149 441.3"></polygon>
                <path d="M157.1,440.1 C156.7,439.9 156.2,439.8 155.6,439.8 C155,439.8 154.4,439.9 154.1,440.1 C153.7,440.3 153.4,440.6 153.2,441 C153,441.4 152.9,441.9 152.8,442.4 C152.7,442.9 152.7,443.5 152.7,444.2 C152.7,444.9 152.7,445.5 152.8,446 C152.9,446.5 153,447 153.2,447.4 C153.4,447.8 153.7,448.1 154.1,448.3 C154.5,448.5 155,448.6 155.6,448.6 C156.2,448.6 156.8,448.5 157.1,448.3 C157.4,448.1 157.8,447.8 158,447.4 C158.2,447 158.3,446.5 158.4,446 C158.5,445.5 158.5,444.9 158.5,444.2 C158.5,443.6 158.5,443 158.4,442.4 C158.3,441.9 158.2,441.4 158,441 C157.8,440.6 157.5,440.3 157.1,440.1 Z M156.7,445.7 C156.7,446.1 156.6,446.4 156.5,446.7 C156.4,447 156.3,447.1 156.1,447.3 C155.9,447.4 155.7,447.5 155.5,447.5 C155.3,447.5 155,447.4 154.9,447.3 C154.7,447.2 154.6,447 154.5,446.7 C154.4,446.4 154.4,446.1 154.3,445.7 C154.3,445.3 154.3,444.8 154.3,444.2 C154.3,443.6 154.3,443.1 154.3,442.7 C154.3,442.3 154.4,442 154.5,441.7 C154.6,441.4 154.7,441.3 154.9,441.1 C155.1,441 155.3,440.9 155.5,440.9 C155.7,440.9 156,441 156.1,441.1 C156.3,441.2 156.4,441.4 156.5,441.7 C156.6,442 156.6,442.3 156.7,442.7 C156.7,443.1 156.7,443.6 156.7,444.2 C156.7,444.8 156.8,445.3 156.7,445.7 Z" id="Shape"></path>
                <polygon id="Path" points="10.2 448.1 10.2 440.9 12.1 440.9 12.1 439.5 6.6 439.5 6.6 440.9 8.5 440.9 8.5 448.1"></polygon>
                <path d="M17.1,439.7 C16.7,439.5 16.2,439.4 15.6,439.4 C15,439.4 14.4,439.5 14.1,439.7 C13.7,439.9 13.4,440.2 13.2,440.6 C13,441 12.9,441.5 12.8,442 C12.7,442.5 12.7,443.1 12.7,443.8 C12.7,444.5 12.7,445.1 12.8,445.6 C12.9,446.1 13,446.6 13.2,447 C13.4,447.4 13.7,447.7 14.1,447.9 C14.5,448.1 15,448.2 15.6,448.2 C16.2,448.2 16.8,448.1 17.1,447.9 C17.5,447.7 17.8,447.4 18,447 C18.2,446.6 18.3,446.1 18.4,445.6 C18.5,445.1 18.5,444.5 18.5,443.8 C18.5,443.2 18.5,442.6 18.4,442 C18.3,441.5 18.2,441 18,440.6 C17.8,440.2 17.5,439.9 17.1,439.7 Z M16.7,445.3 C16.7,445.7 16.6,446 16.5,446.3 C16.4,446.6 16.3,446.7 16.1,446.9 C15.9,447 15.7,447.1 15.5,447.1 C15.3,447.1 15,447 14.9,446.9 C14.7,446.8 14.6,446.6 14.5,446.3 C14.4,446 14.4,445.7 14.3,445.3 C14.3,444.9 14.3,444.4 14.3,443.8 C14.3,443.2 14.3,442.7 14.3,442.3 C14.3,441.9 14.4,441.6 14.5,441.3 C14.6,441 14.7,440.9 14.9,440.7 C15.1,440.6 15.3,440.5 15.5,440.5 C15.7,440.5 16,440.6 16.1,440.7 C16.3,440.8 16.4,441 16.5,441.3 C16.6,441.6 16.6,441.9 16.7,442.3 C16.7,442.7 16.7,443.2 16.7,443.8 C16.7,444.4 16.8,444.9 16.7,445.3 Z" id="Shape"></path>
                <path d="M24.7,440.6 C24.5,440.2 24.2,439.9 23.8,439.7 C23.4,439.5 22.9,439.4 22.3,439.4 C21.7,439.4 21.1,439.5 20.8,439.7 C20.4,439.9 20.1,440.2 19.9,440.6 C19.7,441 19.6,441.5 19.5,442 C19.4,442.5 19.4,443.1 19.4,443.8 C19.4,444.5 19.4,445.1 19.5,445.6 C19.6,446.1 19.7,446.6 19.9,447 C20.1,447.4 20.4,447.7 20.8,447.9 C21.2,448.1 21.7,448.2 22.3,448.2 C22.9,448.2 23.5,448.1 23.8,447.9 C24.1,447.7 24.5,447.4 24.7,447 C24.9,446.6 25,446.1 25.1,445.6 C25.2,445.1 25.2,444.5 25.2,443.8 C25.2,443.2 25.2,442.6 25.1,442 C25,441.5 24.9,441 24.7,440.6 Z M23.4,445.3 C23.4,445.7 23.3,446 23.2,446.3 C23.1,446.6 23,446.7 22.8,446.9 C22.6,447 22.4,447.1 22.2,447.1 C22,447.1 21.7,447 21.6,446.9 C21.4,446.8 21.3,446.6 21.2,446.3 C21.1,446 21.1,445.7 21,445.3 C21,444.9 21,444.4 21,443.8 C21,443.2 21,442.7 21,442.3 C21,441.9 21.1,441.6 21.2,441.3 C21.3,441 21.4,440.9 21.6,440.7 C21.8,440.6 22,440.5 22.2,440.5 C22.4,440.5 22.7,440.6 22.8,440.7 C23,440.8 23.1,441 23.2,441.3 C23.3,441.6 23.3,441.9 23.4,442.3 C23.4,442.7 23.4,443.2 23.4,443.8 C23.4,444.4 23.4,444.9 23.4,445.3 Z" id="Shape"></path>
                <polygon id="Path" points="26.2 439.5 26.2 448.1 31 448.1 31 446.7 27.9 446.7 27.9 439.5"></polygon>
                <path d="M33.5,440.9 C33.6,440.8 33.7,440.7 33.8,440.7 C33.9,440.6 34.1,440.6 34.3,440.6 C34.6,440.6 34.9,440.7 35,440.9 C35.1,441.1 35.2,441.4 35.2,441.8 L36.9,441.8 L36.9,441.6 C36.9,441.2 36.8,440.8 36.7,440.6 C36.6,440.4 36.4,440.1 36.1,439.9 C35.9,439.7 35.6,439.6 35.3,439.5 C35,439.4 34.6,439.4 34.2,439.4 C33.4,439.4 32.7,439.6 32.3,440 C31.8,440.4 31.6,441 31.6,441.9 C31.6,442.3 31.6,442.6 31.7,442.8 C31.8,443.1 31.9,443.3 32.1,443.5 C32.3,443.7 32.5,443.9 32.8,444 C33.1,444.2 33.4,444.3 33.8,444.4 C34.1,444.5 34.3,444.6 34.5,444.7 C34.7,444.8 34.9,444.9 35,445 C35.1,445.1 35.2,445.2 35.3,445.4 C35.4,445.5 35.4,445.7 35.4,445.9 C35.4,446.3 35.3,446.5 35.1,446.7 C34.9,446.9 34.6,447 34.4,447 C34.2,447 34,447 33.8,446.9 C33.7,446.8 33.5,446.7 33.4,446.6 C33.3,446.5 33.3,446.4 33.2,446.2 C33.1,446 33.2,445.9 33.2,445.7 L33.2,445.4 L31.5,445.4 L31.5,445.7 C31.5,446.5 31.7,447.1 32.1,447.5 C32.5,447.9 33.2,448.1 34.2,448.1 C35.1,448.1 35.9,447.9 36.4,447.5 C36.9,447.1 37.2,446.4 37.2,445.5 C37.2,445.2 37.2,445 37.1,444.8 C37.1,444.6 37,444.4 36.8,444.2 C36.7,444 36.5,443.9 36.3,443.7 C36.1,443.5 35.8,443.4 35.5,443.3 L34.2,442.7 C33.8,442.5 33.6,442.4 33.5,442.2 C33.4,442 33.3,441.8 33.3,441.5 C33.3,441.4 33.3,441.2 33.3,441.1 C33.3,441 33.4,441 33.5,440.9 Z" id="Path"></path>
                <polygon id="Path" points="8.5 397.1 8.5 397.1 10.5 405.8 12.2 405.8 14.2 397.1 14.2 397.1 14.2 405.8 16.2 405.8 16.2 394.8 12.9 394.8 11.4 402.6 11.3 402.6 9.8 394.8 6.5 394.8 6.5 405.8 8.5 405.8"></polygon>
                <polygon id="Path" points="23.9 396.7 23.9 394.8 17.8 394.8 17.8 405.8 24.1 405.8 24.1 404 20 404 20 401.1 23.7 401.1 23.7 399.2 20 399.2 20 396.7"></polygon>
                <polygon id="Path" points="30.5 402.4 30.4 402.4 27.8 394.8 25.2 394.8 25.2 405.8 27.2 405.8 27.2 398.1 27.3 398.1 30 405.8 32.5 405.8 32.5 394.8 30.5 394.8"></polygon>
                <path d="M38.7,402.5 C38.7,402.8 38.7,403 38.6,403.3 C38.6,403.5 38.5,403.7 38.4,403.9 C38.3,404.1 38.2,404.2 38,404.3 C37.8,404.4 37.6,404.4 37.4,404.4 C37.1,404.4 36.9,404.4 36.8,404.3 C36.6,404.2 36.5,404.1 36.4,403.9 C36.3,403.7 36.2,403.5 36.2,403.3 C36.2,403.1 36.1,402.8 36.1,402.5 L36.1,394.8 L33.9,394.8 L33.9,402.5 C33.9,403.2 34,403.8 34.2,404.3 C34.4,404.8 34.7,405.1 35,405.4 C35.3,405.7 35.7,405.8 36.1,405.9 C36.5,406 37,406 37.4,406 C37.9,406 38.3,406 38.7,405.9 C39.1,405.8 39.5,405.6 39.8,405.4 C40.1,405.1 40.4,404.8 40.6,404.3 C40.8,403.8 40.9,403.3 40.9,402.6 L40.9,394.9 L38.7,394.9 L38.7,402.5 L38.7,402.5 Z" id="Path"></path>
                <path d="M136.4,404.8 L136.4,404.8 L136.4,405.8 L138,405.8 L138,399.9 L134.4,399.9 L134.4,401.5 L135.9,401.5 L135.9,402.6 C135.9,402.9 135.9,403.2 135.8,403.4 C135.7,403.6 135.6,403.8 135.5,403.9 C135.4,404 135.2,404.2 135.1,404.2 C134.9,404.3 134.8,404.3 134.7,404.3 C134.4,404.3 134.1,404.2 133.9,404 C133.7,403.8 133.5,403.5 133.4,403.1 C133.3,402.7 133.2,402.3 133.2,401.7 C133.2,401.2 133.1,400.6 133.1,399.9 C133.1,398.5 133.2,397.5 133.5,396.9 C133.7,396.3 134.1,396 134.7,396 C134.9,396 135.1,396.1 135.3,396.2 C135.5,396.3 135.6,396.5 135.7,396.6 C135.8,396.7 135.9,397 135.9,397.2 C135.9,397.4 136,397.6 136,397.8 L138.1,397.8 C138.1,396.7 137.8,395.8 137.3,395.2 C136.8,394.6 135.9,394.3 134.7,394.3 C134,394.3 133.4,394.4 132.9,394.7 C132.4,394.9 132,395.3 131.8,395.8 C131.5,396.3 131.3,396.8 131.2,397.5 C131.1,398.2 131,399 131,399.9 C131,400.9 131,401.7 131.1,402.4 C131.2,403.1 131.3,403.7 131.6,404.2 C131.8,404.7 132.2,405.1 132.6,405.3 C133,405.5 133.6,405.7 134.3,405.7 C134.8,405.7 135.3,405.6 135.6,405.4 C135.8,405.5 136.1,405.2 136.4,404.8 Z" id="Path"></path>
                <path d="M139.3,394.8 L139.3,402.5 C139.3,403.2 139.4,403.8 139.6,404.3 C139.8,404.8 140.1,405.1 140.4,405.4 C140.7,405.7 141.1,405.8 141.5,405.9 C141.9,406 142.4,406 142.8,406 C143.3,406 143.7,406 144.1,405.9 C144.5,405.8 144.9,405.6 145.2,405.4 C145.5,405.1 145.8,404.8 146,404.3 C146.2,403.8 146.3,403.3 146.3,402.6 L146.3,394.9 L144.1,394.9 L144.1,402.6 C144.1,402.9 144.1,403.1 144,403.4 C144,403.6 143.9,403.8 143.8,404 C143.7,404.2 143.6,404.3 143.4,404.4 C143.2,404.5 143,404.5 142.8,404.5 C142.5,404.5 142.3,404.5 142.2,404.4 C142,404.3 141.9,404.2 141.8,404 C141.7,403.8 141.6,403.6 141.6,403.4 C141.6,403.2 141.5,402.9 141.5,402.6 L141.5,394.9 L139.3,394.8 L139.3,394.8 Z" id="Path"></path>
                <rect id="Rectangle" x="147.9" y="394.8" width="2.2" height="11"></rect>
                <path d="M159.1,400.1 C159.1,399.3 159.1,398.6 159,397.9 C158.9,397.2 158.7,396.7 158.5,396.2 C158.3,395.7 157.9,395.4 157.4,395.1 C156.9,394.8 156.3,394.7 155.5,394.7 L151.9,394.7 L151.9,405.7 L155.4,405.7 C156.1,405.7 156.7,405.6 157.2,405.4 C157.7,405.2 158.1,404.8 158.4,404.4 C158.7,404 158.9,403.4 159,402.6 C159,401.9 159.1,401.1 159.1,400.1 Z M156.8,402.1 C156.8,402.6 156.7,403 156.5,403.3 C156.4,403.6 156.2,403.8 155.9,404 C155.7,404.1 155.4,404.2 155,404.2 L154,404.2 L154,396.5 L154.9,396.5 C155.3,396.5 155.7,396.6 155.9,396.7 C156.2,396.9 156.3,397.1 156.5,397.4 C156.6,397.7 156.7,398.1 156.8,398.6 C156.8,399.1 156.9,399.6 156.9,400.2 C156.9,400.9 156.9,401.6 156.8,402.1 Z" id="Shape"></path>
                <polygon id="Path" points="166.7 396.6 166.7 394.8 160.6 394.8 160.6 405.8 166.9 405.8 166.9 404 162.8 404 162.8 401 166.5 401 166.5 399.2 162.8 399.2 162.8 396.6"></polygon>
                <path d="M20,464.7 L21.4,463.4 L22.2,464.4 C22.4,464.6 22.5,464.6 22.6,464.3 C23.4,462.5 24,460.9 24.8,459.2 C24.9,459 24.9,459 24.6,459 C22.8,459.5 21,459.9 19.2,460.4 C19,460.5 18.9,460.5 19.1,460.7 L19.1,460.7 L19.9,461.6 L18.5,462.9 L20,464.7 Z" id="Path"></path>
                <polygon id="Path" points="18 459 20 459 20 454.7 27.2 454.7 27.2 463.8 24.1 463.8 24 463.7 24 465.8 29.2 465.8 29.2 452.7 18 452.7"></polygon>
                <rect id="Rectangle" x="20.8" y="456" width="5.7" height="1"></rect>
                <path d="M83.9,324.9 C84.5,324.9 84.9,324.8 85.3,324.6 C85.7,324.4 85.9,324.2 86.1,323.9 C86.3,323.6 86.4,323.2 86.5,322.8 C86.6,322.4 86.6,321.9 86.6,321.5 L84.9,321.5 C84.9,322 84.9,322.3 84.8,322.6 C84.7,322.9 84.7,323.1 84.6,323.3 C84.5,323.5 84.4,323.6 84.3,323.6 C84.2,323.7 84,323.7 83.9,323.7 C83.7,323.7 83.6,323.7 83.4,323.6 C83.3,323.5 83.1,323.4 83.1,323.2 C83,323 82.9,322.7 82.9,322.3 C82.9,321.9 82.8,321.4 82.8,320.7 C82.8,320.1 82.8,319.6 82.8,319.2 C82.8,318.8 82.9,318.4 83,318.2 C83.1,317.9 83.2,317.8 83.3,317.6 C83.4,317.5 83.6,317.4 83.8,317.4 C84.2,317.4 84.5,317.5 84.6,317.8 C84.7,318.1 84.8,318.5 84.8,319.2 L86.5,319.2 C86.5,318.9 86.5,318.6 86.4,318.2 C86.4,317.8 86.2,317.5 86.1,317.2 C85.9,316.9 85.7,316.6 85.3,316.4 C84.9,316.2 84.5,316.1 83.8,316.1 C83.2,316.1 82.6,316.2 82.3,316.4 C81.9,316.6 81.6,316.9 81.4,317.3 C81.2,317.7 81.1,318.2 81,318.7 C80.9,319.2 80.9,319.8 80.9,320.5 C80.9,321.2 80.9,321.8 81,322.3 C81.1,322.8 81.2,323.3 81.4,323.7 C81.6,324.1 81.9,324.4 82.3,324.6 C82.7,324.8 83.2,324.9 83.9,324.9 Z" id="Path"></path>
                <polygon id="Path" points="91.3 319.5 89.3 319.5 89.3 316.2 87.6 316.2 87.6 324.8 89.3 324.8 89.3 321 91.3 321 91.3 324.8 93 324.8 93 316.2 91.3 316.2"></polygon>
                <polygon id="Path" points="82.2 337.8 79.1 337.8 79.1 330.6 77.4 330.6 77.4 339.2 82.2 339.2"></polygon>
                <rect id="Rectangle" x="83" y="330.6" width="1.7" height="8.6"></rect>
                <path d="M91.3,336 C91.3,335.8 91.2,335.6 91,335.4 C90.9,335.2 90.7,335.1 90.5,334.9 C90.3,334.7 90,334.6 89.7,334.5 L88.4,333.9 C88,333.7 87.8,333.6 87.7,333.4 C87.6,333.2 87.5,333 87.5,332.7 C87.5,332.6 87.5,332.4 87.5,332.3 C87.5,332.2 87.6,332.1 87.7,332 C87.8,331.9 87.9,331.8 88,331.8 C88.1,331.7 88.3,331.7 88.5,331.7 C88.8,331.7 89.1,331.8 89.2,332 C89.3,332.2 89.4,332.5 89.4,332.9 L91.1,332.9 L91.1,332.7 C91.1,332.3 91,331.9 90.9,331.6 C90.8,331.3 90.6,331.1 90.3,330.9 C90.1,330.7 89.8,330.6 89.5,330.5 C89.2,330.4 88.8,330.4 88.4,330.4 C87.6,330.4 86.9,330.6 86.5,331 C86.1,331.4 85.8,332 85.8,332.9 C85.8,333.3 85.8,333.6 85.9,333.8 C86,334.1 86.1,334.3 86.3,334.5 C86.5,334.7 86.7,334.9 87,335 C87.3,335.1 87.6,335.3 88,335.4 C88.3,335.5 88.5,335.6 88.7,335.7 C88.9,335.8 89.1,335.9 89.2,336 C89.3,336.1 89.4,336.2 89.5,336.4 C89.6,336.5 89.6,336.7 89.6,336.9 C89.6,337.3 89.5,337.5 89.3,337.7 C89.1,337.9 88.8,338 88.6,338 C88.4,338 88.2,338 88,337.9 C87.9,337.8 87.7,337.7 87.6,337.6 C87.5,337.5 87.5,337.4 87.4,337.2 C87.4,337 87.4,336.9 87.4,336.7 L87.4,336.4 L85.7,336.4 L85.7,336.7 C85.7,337.5 85.9,338.1 86.3,338.5 C86.7,338.9 87.4,339.1 88.4,339.1 C89.3,339.1 90.1,338.9 90.6,338.5 C91.1,338.1 91.4,337.4 91.4,336.5 C91.4,336.5 91.4,336.2 91.3,336 Z" id="Path"></path>
                <polygon id="Path" points="95.4 339.2 95.4 332 97.3 332 97.3 330.6 91.8 330.6 91.8 332 93.7 332 93.7 339.2"></polygon>
                <path d="M73.4,388.3 C73.3,388.1 73.1,387.9 72.9,387.8 C72.7,387.6 72.4,387.5 72,387.3 L70.6,386.7 C70.2,386.5 69.9,386.4 69.8,386.2 C69.7,386 69.6,385.8 69.6,385.5 C69.6,385.4 69.6,385.2 69.6,385.1 C69.6,385 69.7,384.9 69.8,384.8 C69.9,384.7 70,384.6 70.1,384.6 C70.2,384.6 70.4,384.5 70.6,384.5 C71,384.5 71.2,384.6 71.4,384.9 C71.6,385.2 71.6,385.5 71.6,385.9 L73.4,385.9 L73.4,385.6 C73.4,385.2 73.3,384.8 73.2,384.5 C73.1,384.2 72.9,383.9 72.6,383.7 C72.3,383.5 72,383.4 71.7,383.3 C71.4,383.2 71,383.2 70.6,383.2 C69.7,383.2 69,383.4 68.5,383.9 C68,384.4 67.7,385 67.7,385.9 C67.7,386.3 67.7,386.6 67.8,386.9 C67.9,387.2 68,387.4 68.2,387.7 C68.4,387.9 68.7,388.1 69,388.3 C69.3,388.5 69.7,388.6 70.1,388.8 C70.4,388.9 70.7,389 70.9,389.1 C71.1,389.2 71.3,389.3 71.4,389.4 C71.5,389.5 71.6,389.7 71.7,389.8 C71.8,389.9 71.8,390.1 71.8,390.3 C71.8,390.7 71.7,391 71.5,391.2 C71.3,391.4 71,391.5 70.7,391.5 C70.5,391.5 70.3,391.5 70.1,391.4 C69.9,391.3 69.8,391.2 69.7,391.1 C69.6,391 69.5,390.8 69.5,390.7 C69.5,390.6 69.4,390.3 69.4,390.1 L69.4,389.8 L67.5,389.8 L67.5,390.2 C67.5,391 67.7,391.7 68.2,392.2 C68.7,392.7 69.4,392.9 70.4,392.9 C71.4,392.9 72.2,392.7 72.7,392.2 C73.3,391.8 73.5,391.1 73.5,390.1 C73.5,389.8 73.5,389.6 73.4,389.3 C73.6,388.7 73.5,388.5 73.4,388.3 Z" id="Path"></path>
                <polygon id="Path" points="79.5 392.3 81.1 385 81.1 385 81.1 392.3 82.8 392.3 82.8 383.2 80.1 383.2 78.8 389.6 78.8 389.6 77.4 383.2 74.7 383.2 74.7 392.3 76.4 392.3 76.4 385 76.4 385 78 392.3"></polygon>
                <path d="M88.2,383.2 L85.9,383.2 L83.5,392.3 L85.4,392.3 L85.8,390.4 L88.2,390.4 L88.6,392.3 L90.5,392.3 L88.2,383.2 Z M86.2,388.9 L87.1,384.8 L87.1,384.8 L88,388.9 L86.2,388.9 Z" id="Shape"></path>
                <path d="M97.5,392.3 C97.3,392.2 97.2,392 97.2,391.8 C97.2,391.5 97.1,391.2 97.1,390.7 C97.1,390.5 97.1,390.2 97.1,390 C97.1,389.8 97.1,389.6 97.1,389.4 C97,388.9 96.9,388.5 96.7,388.3 C96.5,388.1 96.1,387.9 95.7,387.8 L95.7,387.8 C96.2,387.7 96.6,387.4 96.9,387 C97.1,386.6 97.3,386.1 97.3,385.5 C97.3,384.7 97.1,384.1 96.7,383.7 C96.3,383.3 95.7,383.1 94.9,383.1 L91.5,383.1 L91.5,392.3 L93.4,392.3 L93.4,388.4 L94.4,388.4 C94.8,388.4 95.1,388.5 95.2,388.7 C95.4,388.9 95.5,389.2 95.5,389.5 L95.6,391.3 C95.6,391.5 95.6,391.7 95.7,391.8 C95.7,392 95.8,392.1 95.9,392.2 L97.5,392.3 L97.5,392.3 Z M95,386.8 C94.8,387 94.4,387.1 94,387.1 L93.2,387.1 L93.2,384.5 L94.1,384.5 C95,384.5 95.4,384.9 95.4,385.8 C95.3,386.3 95.2,386.6 95,386.8 Z" id="Shape"></path>
                <polygon id="Path" points="101.6 392.3 101.6 384.7 103.6 384.7 103.6 383.2 97.7 383.2 97.7 384.7 99.8 384.7 99.8 392.3"></polygon>
                <polygon id="Path" points="79 403.7 81.1 403.7 81.1 407.8 83 407.8 83 398.6 81.1 398.6 81.1 402.1 79 402.1 79 398.6 77.1 398.6 77.1 407.8 79 407.8"></polygon>
                <path d="M84.2,398.6 L84.2,405 C84.2,405.6 84.3,406.1 84.4,406.5 C84.5,406.9 84.8,407.2 85.1,407.4 C85.4,407.6 85.7,407.7 86,407.8 C86.4,407.9 86.7,407.9 87.1,407.9 C87.5,407.9 87.8,407.9 88.2,407.8 C88.6,407.7 88.9,407.6 89.1,407.3 C89.4,407.1 89.6,406.8 89.8,406.4 C90,406 90,405.5 90,405 L90,398.6 L88.1,398.6 L88.1,405 C88.1,405.2 88.1,405.4 88.1,405.6 C88.1,405.8 88,406 87.9,406.1 C87.8,406.2 87.7,406.4 87.6,406.4 C87.5,406.5 87.3,406.5 87.1,406.5 C86.9,406.5 86.7,406.5 86.6,406.4 C86.5,406.3 86.3,406.2 86.3,406.1 C86.2,406 86.2,405.8 86.1,405.6 C86.1,405.4 86.1,405.2 86.1,405 L86.1,398.6 L84.2,398.6 Z" id="Path"></path>
                <path d="M95.7,407.5 C96.1,407.4 96.4,407.2 96.6,406.9 C96.8,406.7 97,406.4 97.1,406 C97.2,405.7 97.2,405.3 97.2,405 C97.2,404.4 97.1,403.9 96.7,403.5 C96.4,403.1 96,402.9 95.5,402.8 L95.5,402.8 C96,402.7 96.3,402.4 96.5,402.1 C96.7,401.7 96.8,401.3 96.8,400.8 C96.8,400.4 96.7,400 96.6,399.7 C96.5,399.4 96.3,399.2 96.1,399 C95.9,398.8 95.6,398.7 95.3,398.6 C95,398.5 94.6,398.5 94.3,398.5 L91.2,398.5 L91.2,407.7 L94.3,407.7 C94.9,407.8 95.3,407.7 95.7,407.5 Z M93,399.9 L93.7,399.9 C94.2,399.9 94.5,400 94.7,400.2 C94.9,400.4 95,400.7 95,401.1 C95,401.5 94.9,401.8 94.6,402 C94.4,402.2 94,402.3 93.5,402.3 L93,402.3 L93,399.9 Z M93,406.4 L93,403.6 L93.8,403.6 C94,403.6 94.2,403.6 94.4,403.7 C94.6,403.7 94.7,403.8 94.8,403.9 C94.9,404 95,404.1 95.1,404.3 C95.2,404.5 95.2,404.7 95.2,405 C95.2,405.5 95.1,405.9 94.8,406.1 C94.5,406.3 94.2,406.4 93.7,406.4 L93,406.4 L93,406.4 Z" id="Shape"></path>
                <path d="M135.7,196.5 C135.4,196.4 135,196.3 134.6,196.3 L131.6,196.3 L131.6,204.9 L133.3,204.9 L133.3,201.5 L134.2,201.5 C134.6,201.5 135,201.4 135.3,201.3 C135.6,201.2 135.9,201 136.2,200.8 C136.4,200.6 136.6,200.3 136.8,200 C137,199.7 137,199.3 137,198.8 C137,198.5 137,198.2 136.9,197.9 C136.8,197.6 136.7,197.3 136.5,197.1 C136.2,196.8 136,196.6 135.7,196.5 Z M134.9,199.8 C134.7,200 134.4,200.1 134.1,200.1 L133.3,200.1 L133.3,197.5 L134,197.5 C134.4,197.5 134.7,197.6 134.9,197.8 C135.1,198 135.2,198.4 135.2,198.8 C135.2,199.3 135.1,199.6 134.9,199.8 Z" id="Shape"></path>
                <path d="M137.8,196.2 L137.8,204.8 L139.5,204.8 L139.5,201.2 L140.4,201.2 C140.8,201.2 141,201.3 141.2,201.5 C141.4,201.7 141.4,202 141.5,202.3 L141.5,203.9 C141.5,204.1 141.5,204.2 141.5,204.4 C141.5,204.6 141.6,204.7 141.7,204.8 L143.6,204.8 L143.6,204.7 C143.4,204.6 143.3,204.4 143.3,204.2 C143.3,204 143.2,203.6 143.2,203.2 C143.2,203 143.2,202.8 143.2,202.6 C143.2,202.4 143.2,202.2 143.2,202.1 C143.2,201.6 143,201.3 142.8,201.1 C142.6,200.9 142.3,200.7 141.9,200.7 L141.9,200.7 C142.4,200.6 142.7,200.4 143,200 C143.2,199.6 143.3,199.2 143.3,198.6 C143.3,197.9 143.1,197.3 142.7,196.9 C142.3,196.5 141.7,196.4 141,196.4 L137.8,196.4 L137.8,196.2 L137.8,196.2 Z M141.5,198.7 C141.5,199.2 141.4,199.5 141.2,199.7 C141,199.9 140.7,200 140.2,200 L139.5,200 L139.5,197.5 L140.3,197.5 C141.1,197.5 141.5,197.9 141.5,198.7 Z" id="Shape"></path>
                <polygon id="Path" points="149.2 197.7 149.2 196.2 144.4 196.2 144.4 204.8 149.4 204.8 149.4 203.4 146.2 203.4 146.2 201.1 149.1 201.1 149.1 199.7 146.2 199.7 146.2 197.7"></polygon>
                <rect id="Rectangle" x="150.1" y="200.6" width="3.4" height="1.4"></rect>
                <path d="M159.6,203.9 C159.8,203.6 159.9,203.2 160,202.8 C160.1,202.4 160.1,201.9 160.1,201.5 L158.4,201.5 C158.4,202 158.4,202.3 158.3,202.6 C158.2,202.9 158.2,203.1 158.1,203.3 C158,203.5 157.9,203.6 157.8,203.6 C157.7,203.7 157.5,203.7 157.4,203.7 C157.2,203.7 157.1,203.7 156.9,203.6 C156.7,203.5 156.6,203.4 156.6,203.2 C156.5,203 156.4,202.7 156.4,202.3 C156.4,201.9 156.3,201.4 156.3,200.7 C156.3,200.1 156.3,199.6 156.3,199.2 C156.3,198.8 156.4,198.4 156.5,198.2 C156.6,197.9 156.7,197.8 156.8,197.6 C156.9,197.5 157.1,197.4 157.3,197.4 C157.7,197.4 158,197.5 158.1,197.8 C158.2,198.1 158.3,198.5 158.3,199.2 L160,199.2 C160,198.9 160,198.6 159.9,198.2 C159.9,197.8 159.7,197.5 159.6,197.2 C159.5,196.9 159.2,196.6 158.8,196.4 C158.4,196.2 158,196.1 157.3,196.1 C156.7,196.1 156.1,196.2 155.8,196.4 C155.4,196.6 155.1,196.9 154.9,197.3 C154.7,197.7 154.6,198.2 154.5,198.7 C154.4,199.2 154.4,199.8 154.4,200.5 C154.4,201.2 154.4,201.8 154.5,202.3 C154.6,202.8 154.7,203.3 154.9,203.7 C155.1,204.1 155.4,204.4 155.8,204.6 C156.2,204.8 156.7,204.9 157.3,204.9 C157.9,204.9 158.3,204.8 158.7,204.6 C159.1,204.5 159.4,204.3 159.6,203.9 Z" id="Path"></path>
                <polygon id="Path" points="162.8 201 164.8 201 164.8 204.8 166.6 204.8 166.6 196.2 164.8 196.2 164.8 199.5 162.8 199.5 162.8 196.2 161.1 196.2 161.1 204.8 162.8 204.8"></polygon>
                <polygon id="Path" points="14.9 197.3 16.8 197.3 16.8 204.4 18.5 204.4 18.5 197.3 20.4 197.3 20.4 195.8 14.9 195.8"></polygon>
                <polygon id="Path" points="22.5 204.4 23.7 201.5 25 204.4 26.9 204.4 24.8 200.1 26.8 195.8 24.9 195.8 23.8 198.6 22.7 195.8 20.8 195.8 22.8 200.1 20.6 204.4"></polygon>
                <polygon id="Path" points="30.7 204.4 30.7 197.3 32.6 197.3 32.6 195.8 27.1 195.8 27.1 197.3 29 197.3 29 204.4"></polygon>
                <path d="M14.8,217.9 C14.8,220.6 20.2,221 23.4,221 C23.5,221 23.5,221 23.6,221 C25.7,221 30.2,220.8 31.8,219.2 C32.2,218.8 32.4,218.4 32.4,217.9 L32.4,211.3 C32.4,210.8 32.2,210.4 31.8,210 C30.4,208.6 26.5,208.3 23.4,208.4 C17.6,208.4 14.8,209.4 14.8,211.3 C14.8,211.3 14.8,217.9 14.8,217.9 Z M15.8,211.3 C15.8,210.4 17.8,209.4 23.4,209.4 C23.5,209.4 23.6,209.4 23.7,209.4 C27.5,209.4 30.2,209.9 31.1,210.7 C31.3,210.9 31.4,211.1 31.4,211.3 L31.4,217.9 C31.4,218.1 31.3,218.3 31.1,218.5 C30.2,219.4 27.3,220 23.5,220 C19,220 15.9,219.1 15.9,217.9 L15.9,211.3 L15.8,211.3 Z" id="Shape"></path>
                <path d="M17.9,212.4 L29.4,212.4 C29.7,212.4 29.9,212.2 29.9,211.9 C29.9,211.6 29.7,211.4 29.4,211.4 L17.9,211.4 C17.6,211.4 17.4,211.6 17.4,211.9 C17.4,212.2 17.6,212.4 17.9,212.4 Z" id="Path"></path>
                <path d="M17.9,215.1 L29.4,215.1 C29.7,215.1 29.9,214.9 29.9,214.6 C29.9,214.3 29.7,214.1 29.4,214.1 L17.9,214.1 C17.6,214.1 17.4,214.3 17.4,214.6 C17.3,214.9 17.6,215.1 17.9,215.1 Z" id="Path"></path>
                <path d="M17.9,217.8 L29.4,217.8 C29.7,217.8 29.9,217.6 29.9,217.3 C29.9,217 29.7,216.8 29.4,216.8 L17.9,216.8 C17.6,216.8 17.4,217 17.4,217.3 C17.4,217.6 17.6,217.8 17.9,217.8 Z" id="Path"></path>
                <path d="M140.3,214.3 C143.3,215.8 146.2,217.3 149.2,218.7 C149.5,218.9 149.7,218.9 149.7,218.3 L149.7,215.3 L158.9,215.3 L158.9,213 L149.6,213 C149.6,212 149.7,210.6 149.7,209.6 C149.7,209.1 149.5,209 149.1,209.2 C146,210.8 143.2,212.2 140.2,213.6 C139.9,214 139.9,214.1 140.3,214.3 Z" id="Path"></path>
                <polygon id="Path" points="1.1 653.6 2.9 653.6 2.9 652.6 1.1 652.6 1.1 651.1 3 651.1 3 650.1 0 650.1 0 656.2 3.1 656.2 3.1 655.2 1.1 655.2"></polygon>
                <rect id="Rectangle" x="3.6" y="653.2" width="2.1" height="1"></rect>
                <polygon id="Path" points="11.2 656.2 11.2 650.1 9.6 650.1 8.8 654.4 8.8 654.4 8 650.1 6.4 650.1 6.4 656.2 7.4 656.2 7.4 651.3 7.4 651.3 8.4 656.2 9.2 656.2 10.2 651.3 10.2 651.3 10.2 656.2"></polygon>
                <path d="M11.6,656.2 L12.7,656.2 L12.9,654.9 L14.3,654.9 L14.5,656.2 L15.6,656.2 L14.2,650.1 L12.9,650.1 L11.6,656.2 Z M13.6,651.2 L13.6,651.2 L14.1,653.9 L13.1,653.9 L13.6,651.2 Z" id="Shape"></path>
                <polygon id="Path" points="18.6 654.3 17.3 650.1 16.1 650.1 16.1 656.2 17.1 656.2 17.1 651.9 17.1 651.9 18.4 656.2 19.7 656.2 19.7 650.1 18.7 650.1 18.7 654.3"></polygon>
                <path d="M20.9,656 C21.1,656.1 21.2,656.2 21.4,656.3 C21.6,656.3 21.8,656.4 22,656.4 C22.2,656.4 22.4,656.4 22.6,656.3 C22.8,656.2 23,656.1 23.1,656 C23.3,655.9 23.4,655.7 23.5,655.4 C23.6,655.1 23.6,654.8 23.6,654.4 L23.6,650.2 L22.5,650.2 L22.5,654.4 C22.5,654.6 22.5,654.7 22.5,654.8 C22.5,654.9 22.5,655 22.4,655.1 C22.4,655.2 22.3,655.3 22.2,655.3 C22.1,655.3 22,655.4 21.9,655.4 C21.8,655.4 21.7,655.4 21.6,655.3 C21.5,655.2 21.5,655.2 21.4,655.1 C21.4,655 21.3,654.9 21.3,654.8 C21.3,654.7 21.3,654.5 21.3,654.4 L21.3,650.2 L20.2,650.2 L20.2,654.4 C20.2,654.8 20.2,655.1 20.3,655.4 C20.4,655.7 20.7,655.8 20.9,656 Z" id="Path"></path>
                <path d="M25.5,650.1 L24.1,656.2 L25.2,656.2 L25.4,654.9 L26.8,654.9 L27,656.2 L28.1,656.2 L26.7,650.1 L25.5,650.1 Z M25.6,653.9 L26.1,651.2 L26.1,651.2 L26.6,653.9 L25.6,653.9 Z" id="Shape"></path>
                <polygon id="Path" points="29.7 650.1 28.6 650.1 28.6 656.2 31.6 656.2 31.6 655.2 29.7 655.2"></polygon>
                <path d="M99.6,509.1 L99.6,505.5 L98.4,505.5 L98.4,507.3 C98.4,508.1 98.4,510.1 98,510.5 C97.6,510.9 97,510.9 96.5,510.9 L95.7,510.9 L95.7,508.1 C95.7,506.7 94.5,505.5 93.1,505.5 L81,505.5 C79.6,505.5 78.4,506.7 78.4,508.1 L78.4,514.9 C78.4,516.3 79.6,517.5 81,517.5 L93.1,517.5 C94.5,517.5 95.7,516.3 95.7,514.9 L95.7,512.1 L97.1,512.1 C98.9,512.1 99.6,511 99.6,509.1 Z M94.6,510.9 L90.9,510.9 L90.9,509.4 C90.9,509.1 90.8,509.1 90.6,509.2 C89.1,510 87.6,510.7 86.1,511.5 C85.9,511.6 85.9,511.7 86.1,511.7 C87.6,512.5 89,513.2 90.6,514 C90.8,514.1 90.9,514.1 90.9,513.8 C90.9,513.3 90.8,512.6 90.8,512.1 L94.6,512.1 L94.6,514.9 C94.6,515.8 93.9,516.4 93.1,516.4 L81,516.4 C80.2,516.4 79.5,515.7 79.5,514.9 L79.5,508.1 C79.5,507.2 80.2,506.6 81,506.6 L93.1,506.6 C94,506.6 94.6,507.3 94.6,508.1 C94.6,508.1 94.6,510.9 94.6,510.9 Z" id="Shape"></path>
                <polygon id="Path" points="74.9 254 74.9 254 76.4 260.8 77.8 260.8 79.3 254 79.3 254 79.3 260.8 80.9 260.8 80.9 252.2 78.4 252.2 77.1 258.3 77.1 258.3 75.9 252.2 73.3 252.2 73.3 260.8 74.9 260.8"></polygon>
                <path d="M82,252.2 L82,258.2 C82,258.8 82.1,259.2 82.2,259.6 C82.4,260 82.6,260.2 82.8,260.4 C83.1,260.6 83.3,260.7 83.7,260.8 C84,260.9 84.4,260.9 84.7,260.9 C85.1,260.9 85.4,260.9 85.7,260.8 C86,260.7 86.3,260.6 86.6,260.4 C86.9,260.2 87.1,259.9 87.2,259.6 C87.4,259.2 87.4,258.8 87.4,258.3 L87.4,252.3 L85.7,252.3 L85.7,258.3 C85.7,258.5 85.7,258.7 85.7,258.9 C85.7,259.1 85.6,259.2 85.5,259.4 C85.4,259.5 85.3,259.6 85.2,259.7 C85.1,259.8 84.9,259.8 84.7,259.8 C84.5,259.8 84.3,259.8 84.2,259.7 C84.1,259.6 84,259.5 83.9,259.4 C83.8,259.3 83.8,259.1 83.7,258.9 C83.6,258.7 83.7,258.5 83.7,258.3 L83.7,252.3 L82,252.3 L82,252.2 Z" id="Path"></path>
                <polygon id="Path" points="88.1 253.6 90 253.6 90 260.8 91.7 260.8 91.7 253.6 93.6 253.6 93.6 252.2 88.1 252.2"></polygon>
                <polygon id="Path" points="99.3 259.4 96.1 259.4 96.1 257.1 99 257.1 99 255.7 96.1 255.7 96.1 253.6 99.1 253.6 99.1 252.2 94.4 252.2 94.4 260.8 99.3 260.8"></polygon>
                <path d="M59.9,653.4 L59.9,653.4 C60.3,653.3 60.6,653.1 60.9,652.8 C61.1,652.5 61.2,652.1 61.2,651.5 C61.2,650.7 61,650.2 60.6,649.8 C60.2,649.4 59.6,649.3 58.8,649.3 C58,649.3 57.4,649.5 56.9,649.9 C56.5,650.3 56.3,651 56.3,651.8 L57.9,651.8 C57.9,651.6 57.9,651.4 57.9,651.2 C57.9,651 58,650.9 58,650.8 C58.1,650.7 58.2,650.6 58.3,650.5 C58.4,650.4 58.6,650.4 58.8,650.4 C59.1,650.4 59.3,650.5 59.4,650.7 C59.5,650.9 59.6,651.2 59.6,651.6 C59.6,651.8 59.6,651.9 59.5,652.1 C59.5,652.3 59.4,652.4 59.3,652.5 C59.2,652.6 59.1,652.7 59,652.8 C58.9,652.9 58.7,652.9 58.5,652.9 L57.9,652.9 L57.9,654 L58.5,654 C58.7,654 58.9,654 59.1,654.1 C59.2,654.2 59.4,654.3 59.4,654.4 C59.5,654.5 59.5,654.7 59.6,654.9 C59.6,655.1 59.6,655.3 59.6,655.5 C59.6,655.7 59.6,655.9 59.6,656 C59.6,656.2 59.5,656.3 59.5,656.4 C59.4,656.5 59.3,656.6 59.2,656.7 C59.1,656.8 58.9,656.8 58.7,656.8 C58.3,656.8 58.1,656.7 57.9,656.4 C57.8,656.1 57.7,655.8 57.7,655.3 L56,655.3 L56,655.3 C56,656.1 56.2,656.8 56.6,657.2 C57,657.7 57.6,657.9 58.5,657.9 C59.1,657.9 59.6,657.8 59.9,657.7 C60.3,657.5 60.6,657.3 60.8,657.1 C61,656.8 61.2,656.6 61.2,656.3 C61.2,656 61.3,655.7 61.3,655.4 C61.3,654.9 61.2,654.4 61,654.1 C60.9,653.7 60.5,653.5 59.9,653.4 Z" id="Path"></path>
                <path d="M70.4,646 L70.4,646 L70.2,645.8 L70.1,645.7 C70.1,645.7 70,645.7 70,645.6 C70,645.6 69.9,645.6 69.9,645.5 C69.8,645.5 69.8,645.5 69.7,645.4 L69.6,645.4 C69.5,645.4 69.4,645.4 69.3,645.4 L56,645.4 C55.9,645.4 55.8,645.4 55.7,645.4 L55.6,645.4 C55.5,645.4 55.5,645.4 55.4,645.5 C55.4,645.5 55.3,645.5 55.3,645.6 C55.3,645.6 55.2,645.6 55.2,645.7 C55.2,645.7 55.1,645.7 55.1,645.8 L55,645.9 L54.9,646 C54.9,646 54.9,646 54.8,646.1 C54.6,646.4 54.4,646.7 54.4,647.1 L54.4,657.9 C54.4,658.6 59.5,660.2 61.6,660.9 C62.2,661.1 62.9,661.1 63.5,660.9 C65.7,660.2 70.7,658.5 70.7,657.9 L70.7,647.1 C70.8,646.6 70.7,646.3 70.4,646 C70.5,646 70.4,646 70.4,646 Z M62,659.9 C57.9,658.6 56.2,657.8 55.6,657.5 L55.6,647.3 C57.2,648.1 60.2,649 61.7,649.5 C61.8,649.5 61.9,649.5 62,649.6 L62,659.9 L62,659.9 Z M69.4,655.3 C69.3,655.8 69.2,656.3 68.9,656.6 C68.7,656.9 68.4,657.2 68,657.4 C67.6,657.6 67.2,657.7 66.6,657.7 L64,657.7 L64,649.6 L66.7,649.6 C67.3,649.6 67.7,649.7 68.1,649.9 C68.4,650.1 68.7,650.4 68.9,650.7 C69.1,651 69.2,651.5 69.3,651.9 C69.4,652.4 69.4,652.9 69.4,653.5 C69.5,654.1 69.5,654.7 69.4,655.3 Z" id="Shape"></path>
                <path d="M67.7,651.3 C67.6,651.1 67.5,650.9 67.3,650.8 C67.1,650.7 66.9,650.6 66.6,650.6 L65.9,650.6 L65.9,656.3 L66.5,656.3 C66.8,656.3 67,656.3 67.2,656.2 C67.4,656.1 67.5,655.9 67.6,655.7 C67.7,655.5 67.8,655.2 67.8,654.8 C67.8,654.4 67.9,654 67.9,653.4 C67.9,652.9 67.9,652.5 67.9,652.2 C67.8,651.9 67.8,651.6 67.7,651.3 Z" id="Path"></path>
                <path d="M26.1,81.3 L26.1,61 L23.1,61 C22.9,62.1 22.4,63 21.6,63.5 C20.8,64 19.7,64.3 18.3,64.3 L17.9,64.3 L17.9,67 L22,67 L22,81.3 L26.1,81.3 Z" id="Path"></path>
                <path d="M87.8,68.7 C87.6,69 87.4,69.4 87.2,69.7 C86.9,70 86.6,70.4 86.1,70.8 L84.4,72.4 C83.7,73.1 83,73.8 82.4,74.5 C81.8,75.2 81.4,75.9 81,76.6 C80.6,77.3 80.3,78.1 80.2,78.8 C80,79.6 79.9,80.4 79.9,81.3 L92.4,81.3 L92.4,78.1 L84.7,78.1 C84.8,77.7 85,77.3 85.4,76.7 C85.8,76.1 86.2,75.6 86.8,75.1 L89.1,73 C89.7,72.5 90.2,72 90.6,71.5 C91,71 91.3,70.5 91.6,70 C91.8,69.5 92,68.9 92.1,68.4 C92.2,67.8 92.3,67.2 92.3,66.6 C92.3,64.8 91.8,63.4 90.8,62.5 C89.8,61.5 88.3,61.1 86.2,61.1 C84,61.1 82.4,61.6 81.4,62.6 C80.4,63.6 79.9,65.1 79.9,67 L79.9,67.8 L83.9,67.8 C83.9,67.3 83.9,66.8 84,66.3 C84,65.8 84.2,65.4 84.3,65 C84.5,64.6 84.7,64.3 85,64.1 C85.3,63.9 85.7,63.8 86.2,63.8 C87.5,63.8 88.2,64.6 88.2,66.3 C88.2,66.8 88.2,67.3 88.1,67.7 C88,68.1 88,68.3 87.8,68.7 Z" id="Path"></path>
                <path d="M150.5,78 C150.3,78.3 150.1,78.5 149.8,78.7 C149.5,78.9 149.1,79 148.6,79 C147.7,79 147.1,78.7 146.8,78.1 C146.5,77.5 146.3,76.6 146.3,75.4 L142.3,75.4 L142.3,75.5 C142.3,77.5 142.8,79 143.8,80.1 C144.8,81.2 146.3,81.7 148.2,81.7 C149.6,81.7 150.8,81.5 151.6,81.2 C152.4,80.9 153.2,80.4 153.7,79.8 C154.2,79.2 154.5,78.5 154.7,77.8 C154.9,77.1 155,76.4 155,75.7 C155,74.4 154.7,73.3 154.2,72.5 C153.7,71.6 152.7,71.1 151.4,70.9 L151.4,70.8 C152.4,70.6 153.1,70.1 153.7,69.3 C154.3,68.5 154.5,67.5 154.5,66.3 C154.5,64.5 154,63.2 153,62.3 C152,61.5 150.5,61 148.7,61 C146.7,61 145.3,61.5 144.2,62.5 C143.2,63.5 142.7,65 142.7,67 L146.5,67 C146.5,66.5 146.5,66.1 146.6,65.7 C146.6,65.3 146.7,64.9 146.9,64.7 C147.1,64.4 147.3,64.2 147.5,64 C147.8,63.8 148.1,63.8 148.6,63.8 C149.3,63.8 149.8,64 150.1,64.4 C150.4,64.8 150.6,65.5 150.6,66.5 C150.6,66.9 150.6,67.3 150.5,67.7 C150.4,68.1 150.3,68.4 150.1,68.7 C149.9,69 149.7,69.2 149.4,69.4 C149.1,69.6 148.7,69.7 148.3,69.7 L146.9,69.7 L146.9,72.4 L148.3,72.4 C148.9,72.4 149.3,72.5 149.7,72.7 C150,72.9 150.3,73.2 150.5,73.5 C150.7,73.8 150.8,74.2 150.9,74.6 C151,75 151,75.4 151,75.9 C151,76.3 151,76.8 150.9,77.2 C150.8,77.6 150.6,77.7 150.5,78 Z" id="Path"></path>
                <path d="M17.1,122.7 L24.3,122.7 L24.3,126.9 L28.1,126.9 L28.1,122.7 L30.1,122.7 L30.1,119.5 L28.1,119.5 L28.1,106.6 L23.8,106.6 L17.1,119.3 L17.1,122.7 Z M24.3,111.8 L24.3,111.8 L24.4,119.5 L20.4,119.5 L24.3,111.8 Z" id="Shape"></path>
                <path d="M81,125.4 C81.4,126 82,126.4 82.8,126.8 C83.6,127.1 84.6,127.3 85.9,127.3 C87.2,127.3 88.3,127.1 89.1,126.8 C89.9,126.5 90.6,126 91.1,125.3 C91.6,124.6 91.9,123.8 92.1,122.9 C92.3,122 92.4,121 92.4,119.8 C92.4,119 92.3,118.2 92.2,117.4 C92.1,116.6 91.8,115.9 91.4,115.3 C91,114.7 90.5,114.2 89.9,113.8 C89.3,113.4 88.4,113.2 87.5,113.2 C86.6,113.2 85.9,113.3 85.3,113.6 C84.7,113.8 84.2,114.2 83.8,114.8 L83.7,114.8 L84.1,110.2 L91.6,110.2 L91.6,107 L81,107 L80.3,118.1 L84,118.1 C84.1,117.5 84.3,117.1 84.6,116.7 C84.9,116.4 85.4,116.2 86,116.2 C86.5,116.2 86.8,116.3 87.1,116.4 C87.4,116.5 87.7,116.8 87.8,117.1 C88,117.4 88.1,117.9 88.2,118.4 C88.3,119 88.3,119.7 88.3,120.5 C88.3,121.8 88.1,122.8 87.7,123.5 C87.3,124.2 86.7,124.5 85.8,124.5 C85.4,124.5 85,124.4 84.7,124.2 C84.4,124 84.2,123.7 84.1,123.4 C84,123.1 83.9,122.7 83.8,122.3 C83.7,121.9 83.7,121.6 83.7,121.2 L79.7,121.2 L79.7,121.7 C79.7,122.3 79.8,122.9 79.9,123.6 C80,124.3 80.5,124.8 81,125.4 Z" id="Path"></path>
                <path d="M142.2,117.8 C142.2,119 142.3,120.2 142.4,121.4 C142.5,122.5 142.8,123.6 143.3,124.4 C143.8,125.3 144.4,126 145.2,126.5 C146,127 147.2,127.2 148.6,127.2 C150.9,127.2 152.6,126.6 153.6,125.4 C154.6,124.2 155.2,122.4 155.2,120 C155.2,119.1 155.1,118.2 154.9,117.5 C154.7,116.7 154.4,116.1 154,115.5 C153.6,114.9 153.1,114.5 152.5,114.2 C151.9,113.9 151.1,113.7 150.2,113.7 C149.3,113.7 148.5,113.9 147.9,114.2 C147.3,114.5 146.8,114.9 146.4,115.5 L146.3,115.5 L146.3,114.5 C146.3,113.8 146.3,113.1 146.4,112.4 C146.5,111.7 146.6,111.2 146.8,110.8 C147,110.3 147.2,110 147.6,109.7 C147.9,109.4 148.4,109.3 148.9,109.3 C149.6,109.3 150.1,109.5 150.4,109.9 C150.7,110.3 150.8,110.9 150.8,111.7 L154.8,111.7 C154.8,110.7 154.6,109.9 154.3,109.2 C154,108.5 153.6,108 153.1,107.6 C152.6,107.2 152,106.9 151.3,106.7 C150.6,106.5 149.9,106.4 149.2,106.4 C147.5,106.4 146.2,106.7 145.3,107.3 C144.4,107.9 143.7,108.8 143.3,109.8 C142.9,110.8 142.6,112 142.5,113.4 C142.2,115 142.2,116.4 142.2,117.8 Z M147,117.7 C147.3,117.1 147.9,116.8 148.8,116.8 C149.6,116.8 150.2,117.1 150.5,117.7 C150.8,118.3 151,119.3 151,120.7 C151,121.3 151,121.8 150.9,122.3 C150.9,122.8 150.8,123.2 150.6,123.6 C150.4,124 150.2,124.2 149.9,124.4 C149.6,124.6 149.2,124.7 148.7,124.7 C148.2,124.7 147.8,124.6 147.5,124.4 C147.2,124.2 147,123.9 146.8,123.6 C146.6,123.2 146.5,122.8 146.5,122.3 C146.4,121.8 146.4,121.3 146.4,120.7 C146.5,119.2 146.7,118.3 147,117.7 Z" id="Shape"></path>
                <path d="M29.9,155.7 L29.9,152.5 L17.3,152.5 L17.3,156.1 L25.9,156.1 C24.9,157.5 24,158.8 23.3,160.3 C22.6,161.8 22,163.1 21.4,164.5 C20.9,165.9 20.5,167.3 20.2,168.6 C19.9,170 19.7,171.2 19.5,172.5 L23.8,172.5 C24,171.1 24.2,169.6 24.5,168.1 C24.8,166.6 25.2,165.2 25.7,163.7 C26.2,162.3 26.8,160.9 27.4,159.5 C28.3,158.2 29,156.9 29.9,155.7 Z" id="Path"></path>
                <path d="M80.9,170.7 C81.4,171.3 82,171.8 82.9,172.2 C83.8,172.6 84.9,172.8 86.3,172.8 C87.7,172.8 88.9,172.6 89.7,172.2 C90.5,171.8 91.2,171.3 91.7,170.7 C92.2,170.1 92.5,169.4 92.6,168.7 C92.7,168 92.8,167.3 92.8,166.7 C92.8,165.4 92.5,164.3 91.9,163.4 C91.3,162.5 90.5,161.9 89.3,161.7 L89.3,161.6 C89.8,161.5 90.3,161.3 90.7,161 C91.1,160.7 91.4,160.4 91.6,160 C91.8,159.6 92,159.3 92.1,158.9 C92.2,158.5 92.3,158.1 92.3,157.8 C92.3,155.8 91.8,154.4 90.7,153.5 C89.6,152.6 88.2,152.2 86.3,152.2 C84.4,152.2 83,152.6 81.9,153.5 C80.8,154.4 80.3,155.8 80.3,157.8 C80.3,158.2 80.3,158.5 80.4,158.9 C80.5,159.3 80.7,159.7 80.9,160 C81.1,160.4 81.4,160.7 81.8,161 C82.2,161.3 82.6,161.5 83.2,161.6 L83.2,161.7 C82.1,161.9 81.2,162.5 80.6,163.4 C80,164.3 79.7,165.4 79.7,166.7 C79.7,167.3 79.8,167.9 79.9,168.7 C80.1,169.4 80.4,170.1 80.9,170.7 Z M86.3,154.9 C87.6,154.9 88.3,155.8 88.3,157.7 C88.3,158.7 88.1,159.4 87.8,159.9 C87.4,160.4 86.9,160.6 86.3,160.6 C85.7,160.6 85.2,160.4 84.8,159.9 C84.4,159.4 84.3,158.7 84.3,157.7 C84.3,155.8 84.9,154.9 86.3,154.9 Z M84,165.3 C84.1,164.9 84.2,164.5 84.4,164.2 C84.6,163.9 84.8,163.6 85.1,163.5 C85.4,163.3 85.8,163.2 86.3,163.2 C86.8,163.2 87.1,163.3 87.4,163.5 C87.7,163.7 88,163.9 88.1,164.2 C88.3,164.5 88.4,164.9 88.5,165.3 C88.6,165.7 88.6,166.2 88.6,166.7 C88.6,167.2 88.6,167.6 88.5,168.1 C88.4,168.5 88.3,168.9 88.1,169.2 C87.9,169.5 87.7,169.8 87.4,169.9 C87.1,170 86.7,170.2 86.3,170.2 C85.9,170.2 85.5,170.1 85.1,169.9 C84.7,169.7 84.5,169.5 84.4,169.2 C84.2,168.9 84.1,168.5 84,168.1 C83.9,167.7 83.9,167.2 83.9,166.7 C83.9,166.2 84,165.8 84,165.3 Z" id="Shape"></path>
                <path d="M142.4,162 C142.6,162.8 142.9,163.4 143.3,164 C143.7,164.6 144.2,165 144.8,165.3 C145.4,165.6 146.2,165.8 147.1,165.8 C148,165.8 148.8,165.6 149.4,165.3 C150,165 150.5,164.6 150.9,164.1 L151,164.1 L151,165.1 C151,165.8 151,166.5 150.9,167.2 C150.8,167.9 150.7,168.4 150.5,168.8 C150.3,169.3 150.1,169.6 149.7,169.9 C149.4,170.2 148.9,170.3 148.4,170.3 C147.7,170.3 147.2,170.1 146.9,169.7 C146.6,169.3 146.5,168.7 146.5,167.9 L142.5,167.9 C142.5,168.9 142.7,169.7 143,170.4 C143.3,171.1 143.7,171.6 144.2,172 C144.7,172.4 145.3,172.7 146,172.8 C146.7,172.9 147.4,173 148.1,173 C149.8,173 151.1,172.7 152,172.1 C152.9,171.5 153.6,170.7 154,169.6 C154.4,168.6 154.7,167.4 154.8,166 C154.9,164.6 154.9,163.2 154.9,161.8 C154.9,160.6 154.8,159.4 154.7,158.2 C154.6,157.1 154.3,156 153.8,155.2 C153.3,154.4 152.7,153.6 151.9,153.1 C151.1,152.6 149.9,152.3 148.5,152.3 C146.2,152.3 144.5,152.9 143.5,154.2 C142.5,155.4 141.9,157.2 141.9,159.6 C142.2,160.4 142.3,161.2 142.4,162 Z M146.4,157.3 C146.4,156.8 146.5,156.4 146.7,156 C146.9,155.6 147.1,155.4 147.4,155.2 C147.7,155 148.1,154.9 148.6,154.9 C149.1,154.9 149.5,155 149.8,155.2 C150.1,155.4 150.3,155.7 150.5,156 C150.7,156.4 150.8,156.8 150.8,157.3 C150.9,157.8 150.9,158.3 150.9,158.9 C150.9,160.3 150.7,161.3 150.4,161.9 C150.1,162.5 149.5,162.8 148.6,162.8 C147.8,162.8 147.2,162.5 146.9,161.9 C146.6,161.3 146.4,160.3 146.4,158.9 C146.3,158.3 146.3,157.8 146.4,157.3 Z" id="Shape"></path>
                <path d="M81.1,217 C81.6,217.8 82.2,218.3 83.1,218.7 C83.9,219 84.9,219.2 86.2,219.2 C87.7,219.2 88.9,218.9 89.7,218.3 C90.6,217.7 91.2,216.9 91.6,215.9 C92,214.9 92.3,213.7 92.4,212.4 C92.5,211.1 92.5,209.7 92.5,208.3 C92.5,206.5 92.4,205 92.2,203.7 C92,202.4 91.7,201.4 91.2,200.6 C90.7,199.8 90.1,199.2 89.2,198.9 C88.3,198.6 87.4,198.4 86.1,198.4 C84.6,198.4 83.4,198.7 82.6,199.3 C81.8,199.9 81.1,200.7 80.7,201.7 C80.3,202.7 80,203.9 79.9,205.2 C79.8,206.5 79.8,207.9 79.8,209.3 C79.8,211.1 79.9,212.6 80.1,213.9 C80.3,215.2 80.6,216.2 81.1,217 Z M83.9,208 C83.9,206.7 83.9,205.6 84,204.7 C84.1,203.8 84.2,203.1 84.3,202.6 C84.5,202.1 84.7,201.7 85,201.5 C85.3,201.3 85.7,201.2 86.1,201.2 C86.5,201.2 86.9,201.3 87.2,201.5 C87.5,201.7 87.7,202 87.9,202.5 C88.1,203 88.2,203.6 88.3,204.4 C88.4,205.2 88.4,206.3 88.4,207.5 L88.4,209.7 C88.4,211 88.4,212.1 88.3,213 C88.2,213.9 88.1,214.6 88,215.1 C87.9,215.6 87.6,216 87.3,216.2 C87,216.4 86.6,216.5 86.2,216.5 C85.8,216.5 85.4,216.4 85.1,216.2 C84.8,216 84.6,215.7 84.4,215.2 C84.2,214.7 84.1,214.1 84,213.3 C83.9,212.5 83.9,211.4 83.9,210.2 L83.9,208 Z" id="Shape"></path>
            </g>
        </g>
    </g>
</svg>